<svg xmlns="http://www.w3.org/2000/svg" version="1.1" viewBox="-5.0 -10.0 110.0 135.0">
 <path d="m10.035 72.598h-9.2461v-23.18h0.70703v-0.73047h0.59375v-0.73047h6.6094v0.73047h0.625v0.73047h0.71094v-11.219h9.6719v5.7305h0.71094v-0.90234h0.58984v-0.90234h6.6133v0.90234h0.625v0.90234h0.03125v-3.3164h0.93359v-1.707h0.52344v-1.707h3.4531v1.707h0.52344v1.707h1.8672v-1.707h0.52344v-1.707h3.4531v1.707h0.52344v1.707h0.93359v-5.1211h1.8516v-2.6523h2.1211v-2.6523h2.0117v-2.6523h7.8203v13.328l3.6641-1.4414v-4.7422h1.9453v3.9766l6.957-2.7344v-4.9023l10.652 5.6719v6.25h11.727v-13.145h0.75781v-1.3477h0.67578v-1.3477h7.0977v1.3477h0.63672v1.3477h0.75781v42.887h-32.305v-0.027344h-39.105v-0.058594zm54.43-23.305v2.6172h1.5078v-2.6172zm-6.0781 0v2.6172h1.5078v-2.6172zm-2.0234 0v2.6172h1.5039v-2.6172zm8.1016 4.1172v2.6172h1.5078v-2.6172zm-2.0234 0v2.6172h1.5039v-2.6172zm-2.0273 0v2.6172h1.5078v-2.6172zm-2.0273 0v2.6172h1.5078v-2.6172zm-2.0234 0v2.6172h1.5039v-2.6172zm6.0781-8.2852v2.6172h1.5039v-2.6172zm-2.0273 0v2.6172h1.5078v-2.6172zm-2.0273 0v2.6172h1.5078v-2.6172zm-2.0234 0v2.6172h1.5039v-2.6172zm4.0508 16.383v2.6133h1.5078v-2.6133zm-2.0273 0v2.6133h1.5078v-2.6133zm-2.0234 0v2.6133h1.5039v-2.6133zm8.1016-16.383v2.6172h1.5078v-2.6172zm0 12.398v2.6172h1.5078v-2.6172zm-2.0234 0v2.6172h1.5039v-2.6172zm-2.0273 0v2.6172h1.5078v-2.6172zm-2.0273 0v2.6172h1.5078v-2.6172zm-2.0234 0v2.6172h1.5039v-2.6172zm8.1016 3.9844v2.6133h1.5078v-2.6133zm-2.0234 0v2.6133h1.5039v-2.6133zm0-12.215v2.6172h1.5039v-2.6172zm-2.0273 0v2.6172h1.5078v-2.6172zm16.742-1.2539h-8.918v1.7109h8.918zm0 3.9062h-8.918v1.707h8.918zm0-11.715h-8.918v1.707h8.918zm0 23.434h-8.918v1.707h8.918zm0-3.9062h-8.918v1.707h8.918zm0-3.9062h-8.918v1.707h8.918zm0 11.719h-8.918v1.707h8.918zm0-23.434h-8.918v1.707h8.918zm1.8242 6.8945v0.83594h9.8164v-0.83594zm0 12.066v0.83594h9.8164v-0.83594zm0-6.8945v0.83594h9.8164v-0.83594zm0 1.7227v0.83984h9.8164v-0.83984zm0-5.1719v0.83984h9.8164v-0.83984zm0 1.7227v0.83984h9.8164v-0.83984zm0 10.344v0.83984h9.8164v-0.83984zm0 1.7227v0.83984h9.8164v-0.83984zm0-20.684v0.83984h9.8164v-0.83984zm0 3.4492v0.83594h9.8164v-0.83594zm0-1.7266v0.83984h9.8164v-0.83984zm0 13.793v0.83594h9.8164v-0.83594zm0-1.7266v0.83984h9.8164v-0.83984zm0-15.512v0.83594h9.8164v-0.83594zm15.109 1.4375v3.5586h1.2695v-3.5586zm0 4.6094v3.5625h1.2695v-3.5625zm3.5312-9.2227v3.5625h1.2695v-3.5625zm0 4.6133v3.5586h1.2695v-3.5586zm-1.7656-9.2227v3.5586h1.2695v-3.5586zm0-4.6133v3.5625h1.2695v-3.5625zm1.7656 23.059v3.5625h1.2695v-3.5625zm0-18.445v3.5586h1.2695v-3.5586zm-3.5312 4.6094v3.5625h1.2695v-3.5625zm1.7656 4.6133v3.5586h1.2695v-3.5586zm-1.7656-9.2227v3.5586h1.2695v-3.5586zm1.7656 4.6094v3.5625h1.2695v-3.5625zm1.7656-9.2227v3.5625h1.2695v-3.5625zm-5.2969 4.6133v3.5586h1.2695v-3.5586zm0 4.6094v3.5625h1.2695v-3.5625zm0 4.6133v3.5586h1.2695v-3.5586zm0 4.6094v3.5625h1.2695v-3.5625zm0 4.6133v3.5625h1.2695v-3.5625zm-1.7656-23.059v3.5625h1.2695v-3.5625zm0 4.6133v3.5586h1.2695v-3.5586zm0 4.6094v3.5625h1.2695v-3.5625zm0 4.6133v3.5586h1.2695v-3.5586zm0 4.6094v3.5625h1.2695v-3.5625zm0 4.6133v3.5625h1.2695v-3.5625zm5.2969 0v3.5625h1.2695v-3.5625zm-1.7656 0v3.5625h1.2695v-3.5625zm-1.7656-23.059v3.5625h1.2695v-3.5625zm3.5312 18.445v3.5625h1.2695v-3.5625zm-1.7656-18.445v3.5625h1.2695v-3.5625zm3.5312 18.445v3.5625h1.2695v-3.5625zm-91.617 7.7617h-1.1836v1.9219h1.1836zm0 2.4922h-1.1836v1.9258h1.1836zm-3.2891-4.9883h-1.1836v1.9258h1.1836zm0 2.4961h-1.1836v1.9219h1.1836zm1.6445-4.9883h-1.1836v1.9258h1.1836zm0-2.4922h-1.1836v1.9258h1.1836zm-1.6445 12.465h-1.1836v1.9258h1.1836zm0-9.9727h-1.1836v1.9258h1.1836zm3.2891 2.4922h-1.1836v1.9258h1.1836zm-1.6445 2.4961h-1.1836v1.9219h1.1836zm1.6445-4.9883h-1.1836v1.9258h1.1836zm-1.6445 2.4922h-1.1836v1.9258h1.1836zm-1.6445-4.9844h-1.1836v1.9258h1.1836zm4.9297 2.4922h-1.1797v1.9258h1.1797zm0 2.4922h-1.1797v1.9258h1.1797zm0 2.4961h-1.1797v1.9219h1.1797zm0 2.4922h-1.1797v1.9258h1.1797zm0 2.4922h-1.1797v1.9258h1.1797zm1.6445-12.465h-1.1797v1.9258h1.1797zm0 2.4922h-1.1797v1.9258h1.1797zm0 2.4922h-1.1797v1.9258h1.1797zm0 2.4961h-1.1797v1.9219h1.1797zm0 2.4922h-1.1797v1.9258h1.1797zm0 2.4922h-1.1797v1.9258h1.1797zm-4.9297 0h-1.1836v1.9258h1.1836zm1.6445 0h-1.1836v1.9258h1.1836zm1.6406-12.465h-1.1797v1.9258h1.1797zm-3.2852 9.9727h-1.1836v1.9258h1.1836zm1.6445-9.9727h-1.1836v1.9258h1.1836zm-3.2891 9.9727h-1.1836v1.9258h1.1836zm16.211-8.8945h-8.0977v0.96875h8.0977zm0-1.9922h-8.0977v0.96875h8.0977zm0-7.9766h-8.0977v0.96875h8.0977zm0 21.93h-8.0977v0.97266h8.0977zm0-15.949h-8.0977v0.97266h8.0977zm0 11.965h-8.0977v0.96875h8.0977zm0 1.9922h-8.0977v0.96875h8.0977zm0-15.949h-8.0977v0.96875h8.0977zm0 19.938h-8.0977v0.96875h8.0977zm0-7.9766h-8.0977v0.96875h8.0977zm0-1.9922h-8.0977v0.96875h8.0977zm0-15.949h-8.0977v0.96875h8.0977zm0 3.9883h-8.0977v0.96875h8.0977zm0 9.9648h-8.0977v0.97266h8.0977zm7.6406-2.1406h-1.1836v2.3789h1.1836zm-1.6445 6.1641h-1.1797v2.3789h1.1797zm-3.2891-6.1641h-1.1797v2.3789h1.1797zm0 3.082h-1.1797v2.3789h1.1797zm1.6445-6.1641h-1.1797v2.3789h1.1797zm0-3.0859h-1.1797v2.3828h1.1797zm-1.6445 15.414h-1.1797v2.3828h1.1797zm0-12.328h-1.1797v2.3789h1.1797zm3.2891 3.082h-1.1797v2.3789h1.1797zm-1.6445 3.082h-1.1797v2.3789h1.1797zm1.6445-6.1641h-1.1797v2.3789h1.1797zm-1.6445 3.082h-1.1797v2.3789h1.1797zm-1.6445-6.168h-1.1797v2.3828h1.1797zm4.9336 3.0859h-1.1836v2.3789h1.1836zm0 6.1641h-1.1836v2.3789h1.1836zm0 3.082h-1.1836v2.3789h1.1836zm0 3.082h-1.1836v2.3828h1.1836zm1.6445-15.414h-1.1836v2.3828h1.1836zm0 3.0859h-1.1836v2.3789h1.1836zm0 3.082h-1.1836v2.3789h1.1836zm0 3.082h-1.1836v2.3789h1.1836zm0 3.082h-1.1836v2.3789h1.1836zm0 3.082h-1.1836v2.3828h1.1836zm-4.9336 0h-1.1797v2.3828h1.1797zm1.6445 0h-1.1797v2.3828h1.1797zm1.6445-15.414h-1.1836v2.3828h1.1836zm-3.2891 12.332h-1.1797v2.3789h1.1797zm1.6445-12.332h-1.1797v2.3828h1.1797zm-3.2891 12.332h-1.1797v2.3789h1.1797zm3.2891-3.082h-1.1797v2.3789h1.1797zm4.8828 4.7266h-0.72656v2.6602h0.72656zm6.3672 0h-0.72656v2.6602h0.72656zm-5.3594-17.227h-0.72656v2.6602h0.72656zm6.3672 0h-0.72266v2.6602h0.72266zm-6.3672 3.4453h-0.72656v2.6602h0.72656zm6.3672 0h-0.72266v2.6602h0.72266zm-6.3672 3.4453h-0.72656v2.6602h0.72656zm3.0312 0h-0.72656v2.6602h0.72656zm6.3672 0h-0.72656v2.6602h0.72656zm-6.3672 3.4453h-0.72656v2.6602h0.72656zm6.3672 0h-0.72656v2.6602h0.72656zm-6.3672 3.4453h-0.72656v2.6602h0.72656zm6.3672 0h-0.72656v2.6602h0.72656zm-6.3672 3.4453h-0.72656v2.6602h0.72656zm6.3672 0h-0.72656v2.6602h0.72656zm-4.0391-17.227h-0.72656v2.6602h0.72656zm-6.3672 3.4453h-0.72656v2.6602h0.72656zm6.3672 3.4453h-0.72656v2.6602h0.72656zm-6.3672-6.8906h-0.72656v2.6602h0.72656zm0 6.8906h-0.72656v2.6602h0.72656zm6.3672-3.4453h-0.72656v2.6602h0.72656zm-6.3672 6.8906h-0.72656v2.6602h0.72656zm6.3672 0h-0.72656v2.6602h0.72656zm-6.3672 3.4453h-0.72656v2.6602h0.72656zm6.3672 0h-0.72656v2.6602h0.72656zm1.0078-6.8906h-0.72266v2.6602h0.72266zm-6.3672 3.4453h-0.72656v2.6602h0.72656zm6.3672 0h-0.72266v2.6602h0.72266zm-6.3672 3.4453h-0.72656v2.6602h0.72656zm6.3672 0h-0.72266v2.6602h0.72266zm-6.3672 3.4453h-0.72656v2.6602h0.72656zm6.3672 0h-0.72266v2.6602h0.72266zm-5.3555-17.227h-0.72656v2.6602h0.72656zm6.3672 0h-0.72656v2.6602h0.72656zm-6.3672 3.4453h-0.72656v2.6602h0.72656zm6.3672 0h-0.72656v2.6602h0.72656zm-6.3672 3.4453h-0.72656v2.6602h0.72656zm6.3672 0h-0.72656v2.6602h0.72656zm-6.3672 3.4453h-0.72656v2.6602h0.72656zm6.3672 0h-0.72656v2.6602h0.72656zm-6.3672 3.4453h-0.72656v2.6602h0.72656zm6.3672 0h-0.72656v2.6602h0.72656zm-6.3672 3.4453h-0.72656v2.6602h0.72656zm6.3672 0h-0.72656v2.6602h0.72656zm-5.3594-17.227h-0.72656v2.6602h0.72656zm6.3672 0h-0.72656v2.6602h0.72656zm-6.3672 3.4453h-0.72656v2.6602h0.72656zm6.3672 0h-0.72656v2.6602h0.72656zm-6.3672 3.4453h-0.72656v2.6602h0.72656zm6.3672 0h-0.72656v2.6602h0.72656zm-6.3672 3.4453h-0.72656v2.6602h0.72656zm6.3672 0h-0.72656v2.6602h0.72656zm-6.3672 3.4453h-0.72656v2.6602h0.72656zm6.3672 0h-0.72656v2.6602h0.72656zm-6.3672 3.4453h-0.72656v2.6602h0.72656zm6.3672 0h-0.72656v2.6602h0.72656zm-5.3555-17.227h-0.72656v2.6602h0.72656zm6.3672 0h-0.72656v2.6602h0.72656zm-6.3672 3.4453h-0.72656v2.6602h0.72656zm6.3672 0h-0.72656v2.6602h0.72656zm13.492 18.945h-11.559v1.2109h11.559zm0-19.914h-11.559v1.2109h11.559zm0-7.4688h-11.559v1.2109h11.559zm0 9.957h-11.559v1.2109h11.559zm0-7.4648h-11.559v1.2109h11.559zm0 27.379h-11.559v1.2109h11.559zm0-4.9766h-11.559v1.207h11.559zm0-2.4922h-11.559v1.2109h11.559zm0-9.9531h-11.559v1.207h11.559zm0-7.4688h-11.559v1.2109h11.559zm0 9.957h-11.559v1.2109h11.559zm0 17.422h-11.559v1.2109h11.559zm0-14.934h-11.559v1.2109h11.559zm0 2.4883h-11.559v1.2109h11.559z" fill-rule="evenodd"/>
<text x="0.0" y="117.5" font-size="5.0" font-weight="bold" font-family="Arbeit Regular, Helvetica, Arial-Unicode, Arial, Sans-serif" fill="#000000">Created by Yaumil Fadhilah</text><text x="0.0" y="122.5" font-size="5.0" font-weight="bold" font-family="Arbeit Regular, Helvetica, Arial-Unicode, Arial, Sans-serif" fill="#000000">from Noun Project</text></svg>