<svg xmlns="http://www.w3.org/2000/svg" version="1.1" viewBox="-5.0 -10.0 110.0 135.0">
 <path d="m89.742 53.172c0.33594-0.24219 0.41406-0.71094 0.17187-1.0469-0.24219-0.33594-0.70703-0.41016-1.0469-0.17188l-1.2969 0.93359c-0.011718-0.62109-0.050781-1.2109-0.10547-1.7539l1.8516-1.5391c0.31641-0.26562 0.36328-0.73828 0.097656-1.0586-0.26562-0.32031-0.73828-0.36328-1.0586-0.097656l-1.1406 0.94922c-0.18359-0.98828-0.37109-1.625-0.40234-1.7305-0.12109-0.39453-0.54297-0.61719-0.9375-0.49609s-0.61719 0.54297-0.49609 0.9375c0.007813 0.023438 0.17188 0.57812 0.33594 1.4766l-1.3164-0.93359c-0.33984-0.24219-0.80859-0.16016-1.0469 0.17578-0.23828 0.33984-0.16016 0.80859 0.17578 1.0469l2.4531 1.7383c0.03125 0.38281 0.050781 0.78516 0.058593 1.207l-1.1367-0.93359c-0.32031-0.26562-0.79297-0.21875-1.0547 0.10156-0.26562 0.32031-0.21875 0.79297 0.10156 1.0547l2.0273 1.668c-0.050781 0.58203-0.13281 1.1758-0.25781 1.7734l-1.0938-1.1875c-0.28125-0.30469-0.75391-0.32422-1.0625-0.042968-0.30469 0.28125-0.32422 0.75781-0.042969 1.0625l1.7266 1.875c-0.60547 1.7148-1.625 3.3789-3.2734 4.7539-0.042968-0.019532-0.085937-0.046875-0.12891-0.0625 0.62109-2.0781 0.54297-4.1953 0.09375-6.1836l1.5664-2.2539c0.23828-0.33984 0.15234-0.80859-0.1875-1.043-0.34375-0.23828-0.80859-0.15234-1.043 0.1875l-0.85938 1.2383c-0.19531-0.56641-0.41797-1.1055-0.64844-1.6289l1.3203-2.5938c0.1875-0.36719 0.039062-0.82031-0.32813-1.0078-0.36719-0.1875-0.82031-0.042969-1.0078 0.32812l-0.80469 1.582c-0.29687-0.55078-0.59375-1.0508-0.88281-1.5156l1-2.3711c0.16016-0.38281-0.019531-0.82031-0.39844-0.98438-0.37891-0.16016-0.82031 0.019531-0.98437 0.39844l-0.61719 1.4609c-0.58203-0.8125-1.0156-1.3242-1.082-1.4023-0.26953-0.3125-0.74609-0.34766-1.0586-0.078125-0.3125 0.26953-0.34766 0.74219-0.078125 1.0586 0.015625 0.019531 0.38281 0.45312 0.90234 1.1758l-1.4883-0.21094c-0.40234-0.054688-0.78906 0.22656-0.84766 0.64062-0.058594 0.41016 0.23047 0.78906 0.64062 0.84766l2.8086 0.39453c0.19922 0.32422 0.39844 0.66797 0.59766 1.0312l-1.2656-0.26953c-0.39844-0.085937-0.80469 0.17188-0.89062 0.57422-0.085937 0.40625 0.17188 0.80469 0.57422 0.89062l2.4375 0.52344c0.24609 0.54688 0.47656 1.1172 0.67969 1.7109l-1.4805-0.53906c-0.38672-0.14062-0.82031 0.058594-0.96094 0.44922s0.058594 0.82031 0.44922 0.96094l2.4883 0.90234c0.38672 1.7656 0.44922 3.6172-0.10547 5.3984-0.21484-0.011719-0.42969-0.03125-0.64453-0.015625-2.6875 0.23828-3.8906 1.9375-4.332 2.7891-0.19141 0.03125-0.37891 0.078125-0.55859 0.14453-0.64453 0.24609-1.1328 0.71875-1.5 1.2617-0.52734-4.5742-1.3242-15.426 1.5039-24.449 2.7148-8.6641 0.39844-21.547-5.0547-28.129-2.7969-3.3789-6.2266-4.9336-9.8789-4.5117-2.1055 0.24219-3.5625 0.83984-4.5898 1.6836-3.1797-3.7344-6.918-5.3164-10.84-4.5859-7.1445 1.332-6.6055 6.2031-6.0352 11.363 0.44531 4.0352 0.95312 8.6133-1.9102 12.617-5.2305 7.3242-7.1992 14.156-5.5859 18.879-0.75-0.22656-1.6719-0.35547-2.7422-0.23047-3.2891 0.39062-6.6523 2.9805-9.9922 7.6953-6.2344 8.8125-9.6445 20.645-7.7656 26.938 0.61719 2.0703 1.8047 3.5039 3.3945 4.1289 0.16016 0.074218 0.32031 0.125 0.48828 0.17578 0.64062 0.19141 1.4102 0.28516 2.3125 0.28516 1.5469 0 3.4844-0.28906 5.7695-0.84766 0.53125 0.53516 1.1523 0.95312 1.8711 1.2188 0.89453 0.33203 2.0312 0.48047 3.3477 0.48047 5.2695 0 13.383-2.3867 20.105-5.0039 2.2539-0.87891 4.3633-1.9492 6.2266-2.8984 2.0781-1.0586 3.957-2.0039 5.4609-2.3906-6.0352 7.6289-6.6133 12.008-5.0469 13.574 0.46875 0.46875 1.1836 0.74219 2.1562 0.74219 2.4727 0 6.6172-1.7812 12.633-6.7695 1.6445-1.3633 2.9336-2.6602 3.8945-3.8906 0.027344-0.027344 0.050782-0.058594 0.070313-0.089844 1.1875-1.5352 1.8516-2.9648 1.9492-4.2656 0.003906-0.023437 0-0.039062 0-0.0625 0.98828-0.070312 2.5547-0.375 3.1016-1.6016 0.26562-0.60156 0.22266-1.3008-0.10547-2.0938 1.1836-0.26953 2.9688-0.91797 3.5508-2.4336 0.070312-0.17969 0.11719-0.36719 0.14453-0.55859 0.85156-0.44141 2.5547-1.6445 2.793-4.3359 0.11328-1.3086-0.35547-2.5977-1.2969-3.5352-0.003906-0.003906-0.007813-0.003906-0.007813-0.007812 1.7461-1.5547 2.8242-3.3867 3.4688-5.25l2.5039-1.3203c0.36719-0.19141 0.50781-0.64453 0.3125-1.0117-0.19141-0.36719-0.64453-0.51172-1.0117-0.3125l-1.2773 0.67188c0.11719-0.61328 0.19922-1.2188 0.24609-1.8086l2.2305-1.6016zm-29.648-42.055c3.9609-0.46484 6.8359 1.9062 8.5508 3.9766 5.1719 6.2422 7.3594 18.48 4.7773 26.723-3.5391 11.297-1.6445 24.883-1.3008 27.074-0.67188-0.22266-1.2734-0.22656-1.7969 0.007813-1.2227 0.54687-1.5312 2.1133-1.6016 3.1016h-0.0625c-1.1016 0.082031-2.3008 0.57422-3.5742 1.4453-1.1133-0.40234-2.6641-1.0859-4.3555-2.2305-1.7422-1.1836-4.043-4.3984-6.4805-7.8086-2.3945-3.3477-4.8711-6.8125-7.2266-8.9375-0.51953-0.47266-0.93359-0.97266-1.2734-1.5273-0.011719-0.015625-0.023438-0.035156-0.035156-0.050781-2.5859-4.2773-0.41406-11.348 5.8125-18.93 3.4883-4.2383 3.2812-9.1406 3.0977-13.469-0.22266-5.2383-0.36719-8.6953 5.4688-9.375zm-22.324 20.461c3.1953-4.4688 2.6562-9.3516 2.1797-13.652-0.57422-5.207-0.95703-8.6484 4.8203-9.7266 4.2461-0.78906 7.4805 1.7539 9.543 4.2227-1.4258 2.0859-1.3125 5.0547-1.1836 8.1328 0.17188 4.0586 0.36328 8.6562-2.7578 12.453-5.7188 6.9609-8.1484 13.633-6.8594 18.449-0.71484-0.26953-1.6016-0.45703-2.6562-0.41797-1.7266 0.070313-3.5156 0.74609-5.3477 2.0039-0.28125-0.24609-0.55859-0.48438-0.83984-0.70312-0.51953-0.40234-0.97266-0.87891-1.3477-1.4102-0.015624-0.019532-0.058593-0.066407-0.09375-0.10547-2.8359-4.1055-1.1406-11.293 4.5391-19.246zm-22.992 55.277c-0.097656-0.03125-0.19922-0.058594-0.33594-0.12109-1.1992-0.47266-2.0586-1.5391-2.5469-3.1758-1.7617-5.9023 1.5547-17.168 7.5547-25.645 3.0391-4.293 6.1328-6.7383 8.9453-7.0703 2.1719-0.25391 3.5117 0.80859 3.7227 0.98828l0.019531 0.019531c0.45312 0.62891 0.99609 1.1914 1.6094 1.6719 0.17578 0.13672 0.35547 0.28516 0.53125 0.4375-1.3086 1.0703-2.6367 2.4258-3.9844 4.0781-7.0508 8.6523-11.215 20.41-9.4805 26.762 0.16016 0.59766 0.38281 1.1328 0.64453 1.6172-3.0117 0.6875-5.3164 0.84375-6.6836 0.4375zm38.516-6.668c-1.8281 0.93359-3.9023 1.9883-6.0898 2.8359-10.078 3.9258-19.074 5.7422-22.387 4.5156-1.2539-0.46484-2.1133-1.5195-2.5547-3.1328-1.5938-5.8398 2.5312-17.242 9.1953-25.422 3.3477-4.1055 6.6172-6.3359 9.457-6.4453 2.1406-0.074218 3.375 1.0391 3.6172 1.2812 0.39844 0.63281 0.89453 1.2266 1.4844 1.7617 2.2383 2.0195 4.6641 5.4141 7.0156 8.6992 2.5156 3.5195 4.8945 6.8438 6.8555 8.1758 1.3984 0.94531 2.7188 1.6055 3.8008 2.0586-0.92188 0.79297-1.8828 1.7812-2.8789 2.9453-2.0312-0.050782-4.4688 1.1797-7.5195 2.7305zm10.18 8.8711c-0.69531-1.0898-1.5-2.1055-2.418-3.0234-0.91797-0.91797-1.9336-1.7227-3.0234-2.418 0.42188-0.64844 0.89844-1.3398 1.4453-2.082 1.25 0.71094 2.4102 1.5859 3.4492 2.6211 1.0391 1.0391 1.9102 2.1992 2.625 3.4531-0.73828 0.54688-1.4297 1.0234-2.082 1.4453zm-3.582 1.9922c-0.51953-0.71484-1.0938-1.418-1.7617-2.0859-0.66797-0.66797-1.3711-1.2422-2.0859-1.7617 0.30078-0.67969 0.69922-1.4531 1.1992-2.3086 0.98828 0.63281 1.9141 1.3672 2.7539 2.2031 0.83594 0.83594 1.5703 1.7617 2.2031 2.7539-0.85547 0.50391-1.625 0.89844-2.3086 1.1992zm-4.4453 0.59375c-0.28906-0.28906-0.48828-1.2383 0.046876-2.9844 0.53516 0.41406 1.0664 0.85547 1.5742 1.3633 0.50781 0.50781 0.95312 1.0391 1.3633 1.5742-1.7461 0.53516-2.6953 0.33594-2.9844 0.046875zm11.316-4.9453c-0.76172-1.3008-1.6836-2.5156-2.7695-3.5977-1.0859-1.0859-2.2969-2.0078-3.5977-2.7695 0.36719-0.47266 0.75781-0.95703 1.1758-1.4609 0.14453-0.17188 0.27734-0.32812 0.41797-0.48828 1.4023 0.73438 2.7031 1.6836 3.8711 2.8516s2.1133 2.4688 2.8477 3.8672c-0.16406 0.14063-0.3125 0.27734-0.48828 0.42188-0.50391 0.41797-0.98828 0.80859-1.4609 1.1758zm3.0938-2.6289c-0.77734-1.4023-1.7539-2.7148-2.9375-3.8945-1.1836-1.1836-2.4961-2.1602-3.9023-2.9414 0.6875-0.72656 1.3164-1.3125 1.8945-1.7891 1.4023 0.73047 2.7109 1.6797 3.8828 2.8555 1.1758 1.1758 2.125 2.4805 2.8516 3.8789-0.47656 0.57812-1.0664 1.207-1.7891 1.8906zm2.7695-3.2305c-0.74609-1.2891-1.6719-2.4961-2.7734-3.5977-1.1016-1.1016-2.3125-2.0312-3.6055-2.7773 1.2383-0.78125 2.1445-0.98047 2.7422-0.98047 0.60938 0 0.90234 0.20312 0.90625 0.20312l3.4648 3.4609c0.011719 0.015624 0.84375 1.1719-0.73438 3.6914zm4.1992-4.6836c-0.20312 0.46094-1.1367 0.67969-1.9336 0.72656-0.16406-0.4375-0.37109-0.69141-0.42578-0.75l-3.5352-3.5352c-0.042969-0.039062-0.28516-0.23438-0.71484-0.39453 0.046875-0.79688 0.26172-1.7305 0.72266-1.9336 0.23438-0.10547 1.1953-0.25391 3.668 2.2188 2.4727 2.4727 2.3242 3.4336 2.2188 3.6719zm3.4141-4.4531c-0.36719 0.96875-2.0156 1.4375-2.9492 1.5977-0.42187-0.58203-0.94922-1.1992-1.6211-1.8711-0.67188-0.67188-1.293-1.2031-1.875-1.6211 0.16016-0.92969 0.625-2.5742 1.5977-2.9492 0.78125-0.30078 1.9375 0.23438 3.3086 1.5 1.3047 1.4102 1.8398 2.5664 1.543 3.3477zm1.3438-1.6641c-0.30469-0.84375-0.91016-1.7578-1.8281-2.7422-0.96484-0.89453-1.8633-1.4883-2.6992-1.7891 0.44922-0.60156 1.3008-1.3594 2.8203-1.4922 0.86328-0.078125 1.7188 0.23438 2.3438 0.85938s0.9375 1.4766 0.86328 2.3438c-0.13672 1.5234-0.89453 2.375-1.4961 2.8242zm-53.078 13.805c0.31641 0.26562 0.35547 0.73828 0.089844 1.0586-0.26562 0.31641-0.74219 0.35547-1.0586 0.089844-0.31641-0.26563-0.35547-0.74219-0.089844-1.0586 0.26563-0.31641 0.74219-0.35547 1.0586-0.089844zm-1.6758-2.1484c0.13281 0.39453-0.078125 0.81641-0.47266 0.94922-0.078125 0.027344-0.15625 0.039063-0.23828 0.039063-0.3125 0-0.60547-0.19922-0.71094-0.51172-0.42578-1.2656-0.49609-2.875-0.21875-4.7773 0.0625-0.41016 0.45312-0.6875 0.85156-0.63281 0.41016 0.0625 0.69141 0.44141 0.63281 0.85156-0.24219 1.6445-0.1875 3.0586 0.15625 4.0859zm17.98-0.95312c0.15234 0.38672-0.039063 0.82031-0.42578 0.97266-0.76953 0.30078-1.5508 0.58984-2.3359 0.86719-4.0977 1.4414-7.8398 2.3594-10.539 2.582-0.019531 0.003907-0.042968 0.003907-0.0625 0.003907-0.38672 0-0.71484-0.29688-0.74609-0.6875-0.035157-0.41016 0.27344-0.77344 0.6875-0.80859 2.5742-0.21484 6.1836-1.1016 10.164-2.5039 0.76953-0.26953 1.5352-0.55469 2.2852-0.84766 0.38672-0.14844 0.82031 0.039063 0.97266 0.42578z"/>
<text x="0.0" y="117.5" font-size="5.0" font-weight="bold" font-family="Arbeit Regular, Helvetica, Arial-Unicode, Arial, Sans-serif" fill="#000000">Created by T. Kiefer Robertson</text><text x="0.0" y="122.5" font-size="5.0" font-weight="bold" font-family="Arbeit Regular, Helvetica, Arial-Unicode, Arial, Sans-serif" fill="#000000">from Noun Project</text></svg>