<svg xmlns="http://www.w3.org/2000/svg" version="1.1" viewBox="-5.0 -10.0 110.0 135.0">
 <path d="m71.715 4.6992c0.46094-0.6875 1.3906-0.87109 2.0742-0.41016 0.6875 0.46094 0.87109 1.3906 0.41016 2.0742-0.21484 0.31641-0.32031 0.60938-0.32031 0.86328 0 0.23828 0.097656 0.49609 0.29297 0.76953 0.57422 0.80078 0.86719 1.6406 0.86719 2.5156 0 0.85547-0.28125 1.6992-0.83594 2.5273-0.46094 0.6875-1.3906 0.87109-2.0742 0.41016-0.6875-0.46094-0.87109-1.3906-0.41016-2.0742 0.21484-0.31641 0.32031-0.60938 0.32031-0.86328 0-0.23828-0.097656-0.49609-0.29297-0.76953-0.57422-0.80078-0.86719-1.6406-0.86719-2.5156 0-0.85547 0.28125-1.6992 0.83594-2.5273zm6.7188 0c0.46094-0.6875 1.3906-0.87109 2.0742-0.41016 0.6875 0.46094 0.87109 1.3906 0.41016 2.0742-0.21484 0.31641-0.32031 0.60938-0.32031 0.86328 0 0.23828 0.097656 0.49609 0.28906 0.76953 0.57812 0.80078 0.86719 1.6406 0.86719 2.5156 0 0.85938-0.27734 1.7031-0.83594 2.5312-0.46094 0.6875-1.3945 0.86719-2.0781 0.40625-0.6875-0.46094-0.86719-1.3945-0.40625-2.0781 0.21484-0.31641 0.32031-0.60547 0.32031-0.85938 0-0.23828-0.097656-0.49609-0.29297-0.76953-0.57813-0.80469-0.86719-1.6445-0.86719-2.5156 0-0.85547 0.27734-1.6992 0.83594-2.5273zm-68.594 81.734v-11.98c0-2.3398 0.95703-4.4688 2.4961-6.0078 1.5391-1.5391 3.668-2.4961 6.0078-2.4961h5.5039v-11.871h-10.836c-0.43359-0.007813-0.86328-0.19531-1.1602-0.55469-0.52344-0.64063-0.42187-1.5859 0.21484-2.1016l40.977-33.363c0.53906-0.44922 1.3398-0.47266 1.9023-0.011719l16.062 13.078v-7.2461h-2.1797c-0.82812 0-1.5-0.67188-1.5-1.5v-4.9453c0-0.82812 0.67188-1.5 1.5-1.5h14.969c0.82812 0 1.5 0.67188 1.5 1.5v4.9453c0 0.82812-0.67188 1.5-1.5 1.5h-2.1797v15.887l14.23 11.59c0.39062 0.26953 0.64453 0.72266 0.64453 1.2344 0 0.82812-0.67188 1.5-1.5 1.5h-10.836v32.355h1.5703c1.3125 0 2.5039 0.53516 3.3672 1.3984 0.85938 0.85938 1.3984 2.0547 1.3984 3.3672v3.2656c0 0.82813-0.67188 1.5-1.5 1.5h-84c-0.82813 0-1.5-0.67187-1.5-1.5v-3.2656c0-1.3125 0.53516-2.5039 1.3984-3.3672l0.097656-0.089844c0.85547-0.80859 2.0078-1.3086 3.2656-1.3086h1.5742zm17.012-33.148v33.145h34.535v-13.59c0-2.125 0.85156-4.0664 2.2344-5.4883l0.085937-0.09375c1.4297-1.4297 3.4062-2.3203 5.5781-2.3203 2.1797 0 4.1523 0.88672 5.582 2.3203 1.4297 1.4375 2.3203 3.4102 2.3203 5.582v13.59h3.9766v-33.148l-27.156-22.109-27.16 22.109zm34.449-3.5469h-14.586c-0.82812 0-1.5-0.67188-1.5-1.5 0-0.40234 0.16016-0.76953 0.41797-1.0391l7.2344-8.5547c0.53516-0.62891 1.4805-0.70703 2.1094-0.17578l0.19141 0.19531 7.2734 8.6055c0.53516 0.62891 0.45703 1.5742-0.17578 2.1094-0.28125 0.23828-0.625 0.35547-0.96484 0.35547zm-15.125 15.707v4.1367h8.4766v-4.1367zm0 7.1367v4.1367h8.4766v-4.1367zm-3 4.1367v-4.1367h-8.4766v4.1367zm0-7.1367v-4.1367h-8.4766v4.1367zm12.977 10.137h-22.957c-0.82812 0-1.5-0.67188-1.5-1.5v-14.273c0-0.82812 0.67188-1.5 1.5-1.5h22.957c0.82812 0 1.5 0.67188 1.5 1.5v14.273c0 0.82812-0.67188 1.5-1.5 1.5z"/>
<text x="0.0" y="117.5" font-size="5.0" font-weight="bold" font-family="Arbeit Regular, Helvetica, Arial-Unicode, Arial, Sans-serif" fill="#000000">Created by Riyuv</text><text x="0.0" y="122.5" font-size="5.0" font-weight="bold" font-family="Arbeit Regular, Helvetica, Arial-Unicode, Arial, Sans-serif" fill="#000000">from Noun Project</text></svg>