<svg xmlns="http://www.w3.org/2000/svg" xmlns:xlink="http://www.w3.org/1999/xlink" version="1.1" x="0px" y="0px" viewBox="0 0 100 125" enable-background="new 0 0 100 100" xml:space="preserve"><path d="M59,91c0-0.086-0.015-0.167-0.025-0.25C58.985,90.667,59,90.586,59,90.5c0-2.52-1.563-4.678-3.769-5.565  c-0.074-0.058-0.15-0.11-0.231-0.157V78.5c0-2.606-1.674-4.823-4-5.65V38c0-1.654,1.346-3,3-3c1.104,0,2-0.896,2-2s-0.896-2-2-2h-3  V11c0-1.103,0.897-2,2-2c1.104,0,2-0.896,2-2s-0.896-2-2-2H23c-1.104,0-2,0.896-2,2s0.896,2,2,2c1.103,0,2,0.897,2,2v2  c-0.861,0-1.625,0.551-1.897,1.368l-2,5.999c-0.002,0.007-0.002,0.015-0.005,0.022c-0.045,0.142-0.077,0.289-0.09,0.438  c-0.002,0.026,0.003,0.052,0.001,0.078c-0.005,0.114-0.008,0.229,0.006,0.343l1,8C22.141,30.249,22.991,31,24,31h6  c1.009,0,1.859-0.751,1.984-1.752l0.971-7.769c0.038-0.155,0.064-0.313,0.064-0.48c0-0.32-0.075-0.622-0.208-0.89l-1.914-5.741  C30.625,13.551,29.861,13,29,13v-2c0-1.103,0.897-2,2-2h4c6.617,0,12,5.383,12,12v10h-3c-1.104,0-2,0.896-2,2s0.896,2,2,2  c1.654,0,3,1.346,3,3v34.85c-2.327,0.827-4,3.044-4,5.65v6.35c-2.327,0.827-4,3.044-4,5.65c0,0.086,0.015,0.167,0.025,0.25  C39.015,90.833,39,90.914,39,91c-1.104,0-2,0.896-2,2s0.896,2,2,2h20c1.104,0,2-0.896,2-2S60.104,91,59,91z M27.559,17l0.667,1.999  h-2.45L26.441,17H27.559z M28.234,27h-2.469l-0.5-4h3.469L28.234,27z M45.547,9h1.803c-0.167,0.47-0.279,0.966-0.324,1.481  C46.566,9.956,46.072,9.462,45.547,9z M49,76.5c1.103,0,2,0.897,2,2v6h-4v-6C47,77.397,47.897,76.5,49,76.5z M43,91  c0-0.086-0.015-0.167-0.025-0.25C42.985,90.667,43,90.586,43,90.5c0-1.103,0.897-2,2-2h8c1.103,0,2,0.897,2,2  c0,0.086,0.015,0.167,0.025,0.25C55.015,90.833,55,90.914,55,91H43z"/><text x="0" y="115" fill="#000000" font-size="5px" font-weight="bold" font-family="'Helvetica Neue', Helvetica, Arial-Unicode, Arial, Sans-serif">Created by Dmitry Mirolyubov</text><text x="0" y="120" fill="#000000" font-size="5px" font-weight="bold" font-family="'Helvetica Neue', Helvetica, Arial-Unicode, Arial, Sans-serif">from the Noun Project</text></svg>