<svg xmlns="http://www.w3.org/2000/svg" xmlns:xlink="http://www.w3.org/1999/xlink" version="1.1" x="0px" y="0px" viewBox="0 0 100 125" enable-background="new 0 0 100 100" xml:space="preserve"><path d="M77.994,24.679c-0.146-4.132-3.093-7.556-6.994-8.446V15c0-5.514-4.486-10-10-10h-4c-5.514,0-10,4.486-10,10v25h-4  c-1.104,0-2,0.896-2,2s0.896,2,2,2c2.206,0,4,1.794,4,4v24.85c-2.327,0.827-4,3.044-4,5.65v6.35c-2.327,0.827-4,3.044-4,5.65  c0,0.086,0.015,0.167,0.025,0.25C39.015,90.833,39,90.914,39,91c-1.104,0-2,0.896-2,2s0.896,2,2,2h20c1.104,0,2-0.896,2-2  s-0.896-2-2-2c0-0.086-0.015-0.167-0.025-0.25C58.985,90.667,59,90.586,59,90.5c0-2.52-1.563-4.678-3.769-5.565  c-0.074-0.058-0.15-0.11-0.231-0.157V78.5c0-2.606-1.674-4.823-4-5.65V48c0-2.206,1.794-4,4-4c1.104,0,2-0.896,2-2s-0.896-2-2-2h-4  V15c0-3.309,2.691-6,6-6h4c3.309,0,6,2.691,6,6v1.232c-4.002,0.913-7,4.494-7,8.768c0,1.104,0.896,2,2,2h2.424  c0.773,1.763,2.531,3,4.576,3s3.803-1.237,4.576-3H76c0.008,0.001,0.015,0,0.02,0c1.105,0,2-0.896,2-2  C78.02,24.891,78.012,24.783,77.994,24.679z M49,76.5c1.103,0,2,0.897,2,2v6h-4v-6C47,77.397,47.897,76.5,49,76.5z M43,91  c0-0.086-0.015-0.167-0.025-0.25C42.985,90.667,43,90.586,43,90.5c0-1.103,0.897-2,2-2h8c1.103,0,2,0.897,2,2  c0,0.086,0.015,0.167,0.025,0.25C55.015,90.833,55,90.914,55,91H43z M69,20c2.046,0,3.81,1.235,4.582,3h-9.164  C65.19,21.235,66.954,20,69,20z"/><text x="0" y="115" fill="#000000" font-size="5px" font-weight="bold" font-family="'Helvetica Neue', Helvetica, Arial-Unicode, Arial, Sans-serif">Created by Dmitry Mirolyubov</text><text x="0" y="120" fill="#000000" font-size="5px" font-weight="bold" font-family="'Helvetica Neue', Helvetica, Arial-Unicode, Arial, Sans-serif">from the Noun Project</text></svg>