<svg xmlns="http://www.w3.org/2000/svg" data-name="Слой 1" viewBox="0 0 100 125" x="0px" y="0px"><title>bracket-01-01-01-01-01-01-01</title><g><path d="M51.57781,29.33619c-0.14566-1.36749-.26369-2.64979-0.43581-3.92484a1.49177,1.49177,0,0,0-.44567-0.60284c-0.27091-.30789-0.55732-0.60214-0.83725-0.90208,0.30107-.23677.60216-0.47345,0.942-0.74071-0.062-1.028-.1004-2.17363-0.21861-3.3109A3.06544,3.06544,0,0,0,50.13,18.86136c-0.1625-.3092-0.35122-0.60459-0.5284-0.9061,0.30238-.09811.60476-0.19614,0.80728-0.26176,0.13734-1.43826.29233-2.90753,0.40444-4.3802a2.27556,2.27556,0,0,0-.21818-0.80239,2.15383,2.15383,0,0,1-.28395-0.90146,1.90846,1.90846,0,0,1,.8521-0.3949c0.3949-1.15579.84363-2.39738,1.23014-3.658a2.06631,2.06631,0,0,0-.09934-0.91964c-0.09934-.4987.00874-0.80047,0.59131-0.82179a2.07994,2.07994,0,0,0,1.75007-2.13816A4.55582,4.55582,0,0,1,54.757,2.61253a7.93066,7.93066,0,0,0,.84031.25153,0.84376,0.84376,0,0,0,.4774-0.06745c0.40153-.18251.78857-0.39665,1.1819-0.59716a1.63037,1.63037,0,0,1,2.25122.67029,0.86233,0.86233,0,0,1-.05371.77015,0.76454,0.76454,0,0,1-.75261.06133c-0.75809-.6564-1.24779-0.03783-1.78624.31426a0.92728,0.92728,0,0,0-.15857,1.40016,0.21519,0.21519,0,0,1,.03469.08108c0.01723,0.49031.03189,0.98071,0.04718,1.471Q56.31691,6.518,55.79508,6.06847c-0.11028-.09462-0.22385-0.18531-0.32992-0.27285-1.19607.84878-1.32939,1.35394-.76255,2.40944a4.35728,4.35728,0,0,1,.26176,1.11718c-0.35568-.13245-0.71257-0.26167-1.06615-0.39953C53.794,8.882,53.69927,8.81681,53.39436,8.65081c-0.32186,1.12766-.68829,2.16324-0.89177,3.22991a4.29264,4.29264,0,0,0,.17456,1.676c0.09313,0.40984.25817,0.71607-.34773,0.861a0.94174,0.94174,0,0,0-.39054.686c-0.07363.52368-.03661,1.062-0.07374,1.5922-0.06483.92409-.02359,1.78039,0.96734,2.2652a1.78964,1.78964,0,0,1,.42155.58109,2.39045,2.39045,0,0,1-.63945.28316,0.75768,0.75768,0,0,0-.69877,1.00316c0.03084,0.5298.13822,1.05532,0.16644,1.58521,0.04859,0.9137.18688,1.70761,1.36,1.79227a1.33439,1.33439,0,0,1,.69124.50088,0.56342,0.56342,0,0,1,.02822.4807,0.485,0.485,0,0,1-.37647.11655c-0.40609-.01975-0.8106-0.07094-1.372-0.125,0.20566,1.44856.35019,2.81963,0.62992,4.16266a3.19288,3.19288,0,0,0,.91186.74569,4.45755,4.45755,0,0,1,.51635.82476,2.58483,2.58483,0,0,0-.75635.087,0.78737,0.78737,0,0,0-.46646.474,31.67387,31.67387,0,0,0,.08379,3.2757,1.78728,1.78728,0,0,0,.57279,1.004c0.47406,0.4496.585,0.69178-.13953,0.9849a1.32264,1.32264,0,0,0-.60537.82642c-0.28438,1.08179-.51137,2.18054-0.712,3.28155a2.46531,2.46531,0,0,0,.112.92418c0.0768,0.34738.19649,0.68532,0.29758,1.02736-0.35332.02673-.70663,0.05347-1.24552,0.09436-0.462,1.54685-1.92123,2.87205-1.94261,4.82919a0.986,0.986,0,0,1-.65309.49721c-0.45519.12668-.95126,0.10178-1.4117,0.21536a9.72451,9.72451,0,0,0-1.66419.55723,2.10336,2.10336,0,0,0-.6218.624c-0.20418.24524-.37979,0.51434-0.57794,0.78675a1.01546,1.01546,0,0,1-.2552-0.22987,1.41673,1.41673,0,0,0-1.40838-1.50885,5.64017,5.64017,0,0,1-2.18646-1.3971,0.88285,0.88285,0,0,1-.145-1.4386c0.607-.50088.90914,0.10554,1.26673,0.49171a4.933,4.933,0,0,0,1.15431,1.03662c0.87849,0.47939,1.03426.35358,1.46953-.58877a1.90159,1.90159,0,0,1,.71319-0.49354,1.52755,1.52755,0,0,1,.37376.66129c-0.09139.78981,0.33078,0.69405,0.80387,0.52552a6.638,6.638,0,0,0,1.01609-.44654,1.02655,1.02655,0,0,0,.40242-1.30677,1.48439,1.48439,0,0,1,.24716-1.02631,2.29661,2.29661,0,0,1,.99007.05653c0.44827-.92077.95693-1.96543,1.41744-2.91128-0.21624-.54658-0.41177-1.041-0.60738-1.53532q0.54243-.18557,1.08476-0.37105L51.3302,40.062c0.18286-1.11761.392-2.23226,0.52021-3.35616a1.63258,1.63258,0,0,0-.52126-0.57707,1.3153,1.3153,0,0,1-.43763-0.60293,0.77842,0.77842,0,0,1,.51923-0.49145,0.95552,0.95552,0,0,0,.66321-1.18157c-0.01083-.61708-0.10729-1.23215-0.14381-1.8495-0.04814-.81436-0.08221-1.594-1.166-1.75994a1.6739,1.6739,0,0,1-.46157-0.74036,6.4354,6.4354,0,0,1,.7477-0.26577A1.68088,1.68088,0,0,1,51.57781,29.33619Z"/><path d="M51.57781,70.66379c-0.14566,1.36749-.26369,2.64979-0.43581,3.92484a1.49258,1.49258,0,0,1-.44567.60293c-0.27091.30789-.55732,0.60205-0.83725,0.90208,0.30107,0.23668.60216,0.47336,0.942,0.74062-0.062,1.028-.1004,2.17363-0.21861,3.311a3.065,3.065,0,0,1-.45248.99338c-0.1625.3092-.35122,0.60468-0.5284,0.90618,0.30238,0.098.60476,0.19605,0.80728,0.26176,0.13734,1.43817.29233,2.90753,0.40444,4.38012a2.27507,2.27507,0,0,1-.21818.80239,2.15417,2.15417,0,0,0-.28395.90155,1.90858,1.90858,0,0,0,.8521.39482c0.3949,1.15579.84363,2.39738,1.23014,3.658a2.06669,2.06669,0,0,1-.09934.91972c-0.09934.4987,0.00874,0.80038,0.59131,0.8217A2.07994,2.07994,0,0,1,54.63551,96.323a4.55582,4.55582,0,0,0,.12144,1.06441,7.95066,7.95066,0,0,1,.84031-0.25145,0.84371,0.84371,0,0,1,.4774.06736c0.40153,0.18251.78857,0.39665,1.1819,0.59716a1.63034,1.63034,0,0,0,2.25122-.6702,0.86233,0.86233,0,0,0-.05371-0.77015,0.7641,0.7641,0,0,0-.75261-0.06133c-0.75809.65631-1.24779,0.03774-1.78624-.31435a0.92718,0.92718,0,0,1-.15857-1.40008,0.21578,0.21578,0,0,0,.03469-0.08108c0.01723-.49031.03189-0.98071,0.04718-1.47111q-0.52159.4499-1.04342,0.89937c-0.11028.09462-.22385,0.18531-0.32992,0.27285-1.19607-.84887-1.32939-1.354-0.76255-2.40944a4.358,4.358,0,0,0,.26176-1.11726c-0.35568.13254-.71257,0.26167-1.06615,0.39962-0.10423.04063-.19894,0.1058-0.50385,0.2718-0.32186-1.12757-.68829-2.16315-0.89177-3.22983a4.29231,4.29231,0,0,1,.17456-1.676c0.09313-.40993.25817-0.71616-0.34773-0.8611a0.94172,0.94172,0,0,1-.39054-0.68593c-0.07363-.52377-0.03661-1.062-0.07374-1.5922-0.06483-.92418-0.02359-1.78039.96734-2.26528a1.78964,1.78964,0,0,0,.42155-0.58109,2.39045,2.39045,0,0,0-.63945-0.28316,0.7576,0.7576,0,0,1-.69877-1.00307c0.03084-.52989.13822-1.05541,0.16644-1.58521,0.04859-.9137.18688-1.7077,1.36-1.79236a1.33341,1.33341,0,0,0,.69124-0.50088,0.56336,0.56336,0,0,0,.02822-0.4807,0.485,0.485,0,0,0-.37647-0.11655c-0.40609.01983-.8106,0.071-1.372,0.12511,0.20566-1.44865.35019-2.81972,0.62992-4.16266a3.19443,3.19443,0,0,1,.91186-0.74577,4.45465,4.45465,0,0,0,.51635-0.82476,2.58485,2.58485,0,0,1-.75635-0.08693,0.78749,0.78749,0,0,1-.46646-0.47406,31.67387,31.67387,0,0,1,.08379-3.2757,1.78678,1.78678,0,0,1,.57279-1.00395c0.47406-.44968.585-0.69187-0.13953-0.985a1.32269,1.32269,0,0,1-.60537-0.82633c-0.28438-1.08188-.51137-2.18054-0.712-3.28164a2.46531,2.46531,0,0,1,.112-0.92418c0.0768-.34738.19649-0.68532,0.29758-1.02728-0.35332-.02682-0.70663-0.05356-1.24552-0.09436-0.462-1.54685-1.92123-2.87214-1.94261-4.82919a0.98635,0.98635,0,0,0-.65309-0.4973c-0.45519-.1266-0.95126-0.10178-1.4117-0.21536a9.71693,9.71693,0,0,1-1.66419-.55723,2.103,2.103,0,0,1-.6218-0.6239C45.11474,50.14,44.93913,49.871,44.741,49.59853a1.01738,1.01738,0,0,0-.2552.22987,1.41673,1.41673,0,0,1-1.40838,1.50885,5.64118,5.64118,0,0,0-2.18646,1.3971,0.88293,0.88293,0,0,0-.145,1.43869c0.607,0.50079.90914-.10554,1.26673-0.49171a4.933,4.933,0,0,1,1.15431-1.03662c0.87849-.47948,1.03426-0.35367,1.46953.58869a1.89961,1.89961,0,0,0,.71319.49354,1.52731,1.52731,0,0,0,.37376-0.6612c-0.09139-.7899.33078-0.69405,0.80387-0.52552a6.62951,6.62951,0,0,1,1.01609.44654,1.02644,1.02644,0,0,1,.40242,1.30668,1.48439,1.48439,0,0,0,.24716,1.02631,2.29513,2.29513,0,0,0,.99007-0.05653c0.44827,0.92086.95693,1.96543,1.41744,2.91128-0.21624.54666-.41177,1.041-0.60738,1.53541q0.54243,0.18544,1.08476.371l0.25232-.14293c0.18286,1.1177.392,2.23234,0.52021,3.35625a1.63258,1.63258,0,0,1-.52126.57707,1.31555,1.31555,0,0,0-.43763.60284,0.77852,0.77852,0,0,0,.51923.49153,0.95543,0.95543,0,0,1,.66321,1.18148c-0.01083.61708-.10729,1.23224-0.14381,1.8495-0.04814.81436-.08221,1.594-1.166,1.76a1.673,1.673,0,0,0-.46157.74027,6.4354,6.4354,0,0,0,.7477.26577A1.67828,1.67828,0,0,0,51.57781,70.66379Z"/></g><text x="0" y="115" fill="#000000" font-size="5px" font-weight="bold" font-family="'Helvetica Neue', Helvetica, Arial-Unicode, Arial, Sans-serif">Created by Olga</text><text x="0" y="120" fill="#000000" font-size="5px" font-weight="bold" font-family="'Helvetica Neue', Helvetica, Arial-Unicode, Arial, Sans-serif">from the Noun Project</text></svg>