<svg xmlns="http://www.w3.org/2000/svg" xmlns:xlink="http://www.w3.org/1999/xlink" version="1.1" x="0px" y="0px" viewBox="0 0 100 125" enable-background="new 0 0 100 100" xml:space="preserve"><path fill-rule="evenodd" clip-rule="evenodd" d="M27.5878906,50.9736328l0.4443359-1.9628906h0.5097656l0.3886719,1.9628906  v4.96875l0.2041016-0.0009766v-4.7207031h1.3125v0.8789063h1.2236328v1.4521484h0.5625v-1.4521484h1.1787109v-4.4941406  l0.8974609-0.5517578h0.0878906v-1.8691406h0.2548828v1.8691406h0.0751953v4.6494141h1.09375v1.5800781h0.1552734v-0.7080078  h1.9150391v0.7080078h0.265625v2.6591797h0.1523438v-3.7929688h1.3427734v1.7626953h0.4560547v-2.6767578h0.3925781v-1.9628906  h0.5097656v1.9628906h0.3720703v4.7158203l0.1923828-0.0009766v-4.4804688h1.2460938v0.8339844h1.1611328v3.6474609h0.5341797  v-3.6474609h0.0449219v-7.1533203l1.1210938-1.3095703l1.0917969,1.3095703v7.1533203h0.0927734v-0.3759766h1.0537109  l0.0039063-5.6054688l0.3613281-0.34375h1.3642578l0.4873047,0.34375v3.9775391v3.1269531h0.0009766v2.5244141h0.1445313v-3.5996094  h1.2734375v3.5996094l0.2763672,0.0009766v-0.0820313h0.0761719v0.0458984h0.1142578v0.0380859h0.0419922v-0.0556641h0.1396484  v0.0556641l0.0429688,0.0009766v-0.0390625h0.1132813v-0.0458984h0.0771484L52.4375,55.9560547h0.0751953l0.0068359-0.2539063  c-0.0068359,0-0.0126953,0-0.0185547,0c-0.0205078,0.046875-0.0595703,0.0771484-0.1025391,0.0722656  c-0.03125-0.0029297-0.0566406-0.0244141-0.0722656-0.0537109c-0.0234375,0.015625-0.0527344,0.0234375-0.0820313,0.0195313  c-0.0683594-0.0078125-0.1191406-0.0693359-0.1123047-0.1376953c0.0039063-0.0439453,0.0292969-0.0791016,0.0654297-0.0976563  c-0.0302734-0.0263672-0.0488281-0.0654297-0.0439453-0.1083984c0.0058594-0.0683594,0.0664063-0.1181641,0.1347656-0.1103516  c0.0078125,0.0009766,0.015625,0.0029297,0.0224609,0.0048828c0.0009766-0.0029297,0.0019531-0.0068359,0.0039063-0.0097656  c-0.0195313-0.0302734-0.03125-0.0703125-0.0273438-0.1123047c0.0058594-0.0839844,0.0664063-0.1455078,0.1347656-0.1357422  c0.0078125,0.0009766,0.015625,0.0029297,0.0224609,0.0058594c0.0195313-0.0644531,0.0605469-0.1064453,0.1044922-0.1005859  c0.0429688,0.0058594,0.0751953,0.0537109,0.0869141,0.1162109c0.0117188-0.0048828,0.0244141-0.0078125,0.0380859-0.0058594  c0.0507813,0.0068359,0.0869141,0.0673828,0.0820313,0.1337891c-0.0029297,0.0234375-0.0087891,0.0449219-0.0185547,0.0615234  c0.0214844,0.0166016,0.0380859,0.0449219,0.0449219,0.0771484c0.0126953-0.0039063,0.0253906-0.0058594,0.0390625-0.0048828  c0.0498047,0.0058594,0.0859375,0.0546875,0.0810547,0.109375c-0.0029297,0.0351563-0.0234375,0.0644531-0.0507813,0.0791016  c0.0048828,0.0097656,0.0087891,0.0205078,0.0117188,0.0322266c0.0117188-0.0048828,0.0244141-0.0058594,0.0380859-0.0048828  c0.0498047,0.0058594,0.0859375,0.0546875,0.0810547,0.109375c-0.0048828,0.0537109-0.0498047,0.09375-0.0996094,0.0878906  c-0.0195313,0.046875-0.0595703,0.078125-0.1025391,0.0722656c-0.0302734-0.0029297-0.0556641-0.0234375-0.0722656-0.0537109  c-0.0224609,0.015625-0.0517578,0.0234375-0.0820313,0.0195313c-0.0195313-0.0019531-0.0371094-0.0087891-0.0527344-0.0185547  l0.0107422,0.2070313l0.3515625,0.0019531l0.3496094-0.2021484v-0.0439453h0.0058594h0.0400391h0.0058594v0.0439453  l0.3564453,0.2060547l0.2070313,0.0009766l0.0058594-0.2539063c-0.0126953-0.0087891-0.0234375-0.0214844-0.0322266-0.0361328  c-0.0205078,0.0136719-0.0458984,0.0205078-0.0742188,0.0175781c-0.046875-0.0048828-0.0839844-0.0390625-0.0966797-0.0830078  c-0.0078125,0.0019531-0.0166016,0.0019531-0.0253906,0.0009766c-0.0625-0.0068359-0.1074219-0.0625-0.1015625-0.125  c0.0058594-0.0605469,0.0605469-0.1054688,0.1210938-0.0986328c0.0068359,0.0009766,0.0136719,0.0019531,0.0205078,0.0039063  c0.0039063-0.0097656,0.0087891-0.0195313,0.0146484-0.0283203c-0.0253906-0.0234375-0.0390625-0.0585938-0.0361328-0.0947266  c0.0058594-0.0615234,0.0605469-0.1054688,0.1210938-0.0986328c0.0078125,0,0.0146484,0.0019531,0.0205078,0.0039063  c0.0175781-0.046875,0.0546875-0.0771484,0.0947266-0.0732422c0.0371094,0.0039063,0.0664063,0.0390625,0.0771484,0.0849609  c0.0107422-0.0039063,0.0224609-0.0058594,0.0341797-0.0048828c0.0458984,0.0058594,0.078125,0.0498047,0.0732422,0.0986328  c-0.0019531,0.0253906-0.0136719,0.046875-0.03125,0.0615234c0.0273438,0.0117188,0.0478516,0.0419922,0.0556641,0.0791016  c0.0107422-0.0048828,0.0224609-0.0058594,0.0351563-0.0048828c0.0449219,0.0048828,0.0771484,0.0488281,0.0722656,0.0976563  c-0.0039063,0.0488281-0.0439453,0.0849609-0.0888672,0.0800781c-0.0185547,0.0419922-0.0537109,0.0693359-0.0917969,0.0644531  c-0.0029297,0-0.0048828,0-0.0078125-0.0009766C54.0517578,55.65625,54.0419922,55.6572266,54.03125,55.65625  c-0.0166016,0.0380859-0.046875,0.0644531-0.0810547,0.0654297l0.0117188,0.2412109l0.1884766,0.0009766v-0.0048828h0.1386719  v-7.1318359h0.8222656v-0.8105469h2.7832031v0.8105469h0.8193359v7.1318359h0.5332031v-3.2265625v-0.7021484v-3.2753906  l1.5341797-0.9091797h0.6777344v4.1845703v0.7021484v3.2265625h0.3671875v-2.0771484h-0.0019531v-2.2128906l1.0576172-0.3378906  h6.1708984v-2.4482422H68.9375v-0.2617188h0.3789063l0.8466797-2.328125l0.8681641,2.328125h0.3447266v0.2617188H71.265625  v7.0761719h0.0683594V55.921875h0.2314453v-0.2763672l-0.2607422,0.0332031l0.2617188-0.3134766l-0.1826172,0.0419922  l0.1738281-0.2333984l-0.0927734,0.0214844l0.1279297-0.2314453l0.1621094,0.2978516l-0.1230469-0.046875l0.1816406,0.2509766  l-0.1689453-0.0263672l0.2412109,0.2460938l-0.2744141-0.0410156v0.2773438h0.0390625v-0.0400391h0.1171875v-0.046875h0.0498047  h0.0292969h0.0498047v0.046875h0.1171875v0.0400391h0.0712891v-0.2226563l-0.2285156,0.0253906l0.2294922-0.2431641  l-0.1601563,0.0322266l0.1523438-0.1796875l-0.0820313,0.015625l0.1132813-0.1787109L72.25,55.4013672l-0.1074219-0.0361328  l0.1582031,0.1943359l-0.1464844-0.0195313l0.2099609,0.1894531L72.125,55.6982422v0.2236328h0.0498047v-0.0761719h0.0791016  v0.046875h0.1171875v0.0292969h0.2900391l0.0078125-0.1650391c-0.0195313-0.0009766-0.0380859-0.015625-0.046875-0.0390625  c-0.0068359,0.0019531-0.0126953,0.0009766-0.0175781-0.0009766c-0.0019531,0-0.0029297,0.0009766-0.0048828,0.0009766  c-0.0214844,0.0029297-0.0429688-0.0136719-0.0527344-0.0390625c-0.0273438,0.0039063-0.0507813-0.0175781-0.0527344-0.0458984  c-0.0029297-0.0283203,0.0166016-0.0546875,0.0419922-0.0576172c0.0078125-0.0009766,0.0146484,0,0.0205078,0.0029297  c0.0058594-0.0214844,0.0175781-0.0390625,0.0332031-0.0458984c-0.0097656-0.0087891-0.0175781-0.0214844-0.0185547-0.0371094  c-0.0019531-0.0283203,0.015625-0.0537109,0.0429688-0.0576172c0.0068359,0,0.0136719,0.0009766,0.0195313,0.0029297  c0.0068359-0.0263672,0.0234375-0.046875,0.0458984-0.0498047c0.0234375-0.0029297,0.0449219,0.015625,0.0556641,0.0429688  c0.0039063-0.0009766,0.0078125-0.0019531,0.0117188-0.0019531c0.0361328-0.0048828,0.0673828,0.0214844,0.0712891,0.0576172  c0.0019531,0.0214844-0.0068359,0.0419922-0.0214844,0.0556641c0.0029297,0.0048828,0.0058594,0.0107422,0.0087891,0.0166016  c0.0039063-0.0009766,0.0078125-0.0019531,0.0117188-0.0019531c0.0361328-0.0048828,0.0683594,0.0214844,0.0712891,0.0585938  c0.0029297,0.0351563-0.0234375,0.0683594-0.0595703,0.0722656c-0.0048828,0.0009766-0.0097656,0-0.015625,0  c-0.0068359,0.0253906-0.0283203,0.0449219-0.0556641,0.0478516c-0.0166016,0.0019531-0.0322266-0.0019531-0.0439453-0.0097656  c-0.0048828,0.0087891-0.0117188,0.015625-0.0185547,0.0205078l0.0039063,0.1728516h0.1103516v0.2304688H54.3144531v0.0068359  l-27.2041016-0.0126953v-0.2041016h0.4775391V50.9736328z"/><text x="0" y="115" fill="#000000" font-size="5px" font-weight="bold" font-family="'Helvetica Neue', Helvetica, Arial-Unicode, Arial, Sans-serif">Created by Aisyah</text><text x="0" y="120" fill="#000000" font-size="5px" font-weight="bold" font-family="'Helvetica Neue', Helvetica, Arial-Unicode, Arial, Sans-serif">from the Noun Project</text></svg>