<svg xmlns="http://www.w3.org/2000/svg" version="1.1" viewBox="-5.0 -10.0 110.0 135.0">
 <path d="m77.246 30.727v-3.6055c0-2.9023-2.2383-5.2656-5.0742-5.5234l-1.6406-4.7148c-0.94531-2.7266-3.5234-4.5547-6.4102-4.5547h-8.2812v-1.5547c0-3.2266-2.6211-5.8516-5.8516-5.8516-3.2266 0-5.8516 2.6211-5.8516 5.8516v1.5547h-8.2812c-2.8867 0-5.4609 1.832-6.4102 4.5547l-1.6289 4.7188c-2.8359 0.25391-5.0742 2.6172-5.0742 5.5195v3.6016c0 2.7734 2.0469 5.0664 4.7109 5.4844v34.988c-2.6602 0.41797-4.7109 2.707-4.7109 5.4844v3.6016c0 2.8984 2.2383 5.2656 5.0742 5.5234l1.6367 4.7148c0.94531 2.7266 3.5234 4.5547 6.4102 4.5547h28.258c2.8828 0 5.4609-1.832 6.4102-4.5547l1.6406-4.7148c2.8359-0.25781 5.0742-2.6172 5.0742-5.5234v-3.6016c0-2.7734-2.0469-5.0664-4.7109-5.4844l0.003906-34.984c2.6602-0.42188 4.707-2.7109 4.707-5.4844zm-30.445-19.953c0-1.7578 1.4297-3.1953 3.1953-3.1953 1.7617 0 3.1953 1.4297 3.1953 3.1953v1.5547h-6.3867zm-10.934 4.207h28.258c1.7578 0 3.3203 1.1172 3.8984 2.7734l1.3203 3.7891-38.699 0.003906 1.3203-3.7891c0.57422-1.6602 2.1445-2.7773 3.9023-2.7773zm-10.469 15.746v-3.6055c0-1.6094 1.3047-2.918 2.9141-2.918h0.45703 0.007813 0.007812 42.891c1.6094 0 2.918 1.3086 2.918 2.918v3.6016c0 1.6094-1.3086 2.9141-2.918 2.9141l-43.363 0.003906c-1.6094 0-2.9141-1.3047-2.9141-2.9141zm38.359 40.383v-34.812h6.125v34.812zm-24.871 0v-34.812h22.211v34.812zm-8.7812 0v-34.812h6.125v34.812zm34.02 21.312h-28.258c-1.7578 0-3.3242-1.1172-3.9023-2.7734l-1.3203-3.793 38.699-0.003907-1.3203 3.793c-0.57813 1.6602-2.1406 2.7773-3.8984 2.7773zm10.465-15.742v3.6016c0 1.6094-1.3086 2.9141-2.918 2.9141l-43.359 0.003907c-1.6094 0-2.9141-1.3047-2.9141-2.9141v-3.6016c0-1.6094 1.3047-2.9141 2.9141-2.9141h43.359c1.6094-0.007812 2.918 1.3008 2.918 2.9102z"/>
<text x="0.0" y="117.5" font-size="5.0" font-weight="bold" font-family="Arbeit Regular, Helvetica, Arial-Unicode, Arial, Sans-serif" fill="#000000">Created by Rikas Dzihab</text><text x="0.0" y="122.5" font-size="5.0" font-weight="bold" font-family="Arbeit Regular, Helvetica, Arial-Unicode, Arial, Sans-serif" fill="#000000">from Noun Project</text></svg>