<svg xmlns="http://www.w3.org/2000/svg" xmlns:xlink="http://www.w3.org/1999/xlink" version="1.1" x="0px" y="0px" viewBox="0 0 100 125" style="enable-background:new 0 0 100 100;" xml:space="preserve"><g><path d="M49.62,59c0.1,0,0.11-0.1,0.11-0.17c-0.01-0.2-0.01-0.49-0.03-0.9c0-0.03-0.02-0.07-0.08-0.07   c-0.16,0.32-0.12,0.65-0.12,0.97C49.51,58.9,49.52,58.99,49.62,59z"/><path d="M49.73,58.83C49.74,59.2,49.74,59.22,49.73,58.83L49.73,58.83z"/><polygon points="49.73,58.82 49.73,58.82 49.73,58.83  "/><path d="M50.19,57.91c-0.1,0.37-0.06,0.72-0.05,1.06c0,0.04,0.04,0.08,0.09,0.08c0.06,0,0.09-0.04,0.1-0.1   c0.02-0.2,0.04-0.39,0.01-0.59C50.32,58.22,50.36,58.06,50.19,57.91z"/><path d="M85.61,63.93c-0.54-1.08-1.23-2.06-1.99-3c-1.01-1.24-2.07-2.44-3.23-3.55c-1.9-1.83-3.81-3.63-5.76-5.41   c-1.71-1.56-3.56-2.95-5.43-4.31c-1.84-1.33-3.74-2.57-5.72-3.68c-0.06-0.04-0.15-0.06-0.13-0.16c0.12-0.04,0.21,0.01,0.3,0.07   c0.25,0.15,0.51,0.15,0.78,0.07c0.42-0.13,0.79-0.35,1.13-0.63c0.16-0.13,0.31-0.28,0.37-0.49c0.08-0.29,0.28-0.42,0.57-0.45   c0.16-0.01,0.28-0.09,0.39-0.19c0.52-0.46,0.54-1.12,0.66-1.73c0-0.01,0-0.02,0-0.03c-0.02-0.17-0.17-0.23-0.3-0.13   c-0.07,0.05-0.11,0.13-0.16,0.2c-0.16,0.25-0.32,0.49-0.53,0.7c-0.25,0.25-0.45,0.52-0.44,0.9c0.01,0.16-0.14,0.26-0.26,0.18   c-0.35-0.23-0.64-0.11-0.93,0.1c-0.31,0.21-0.61,0.42-0.97,0.54c-0.11,0.04-0.21,0.09-0.29,0.17c-0.11,0.1-0.24,0.14-0.38,0.16   c-0.22,0.02-0.43,0.07-0.64,0.11c-0.15,0.03-0.3,0.05-0.45-0.03c-0.75-0.41-1.56-0.71-2.34-1.04c-0.23-0.09-0.45-0.21-0.73-0.25   c0.34,0.37,0.73,0.63,1.12,0.87c1.19,0.74,2.44,1.39,3.58,2.2c1.05,0.75,2.16,1.42,3.24,2.11c1.48,0.96,2.89,2.02,4.3,3.08   c0.9,0.67,1.76,1.37,2.62,2.09c1,0.83,1.94,1.73,2.89,2.62c1.87,1.76,3.71,3.53,5.39,5.48c1.11,1.29,2.06,2.69,2.89,4.18   c0.1,0.18,0.18,0.36,0.19,0.56c0.05,0.79-0.05,1.57-0.28,2.33c-0.04,0.15-0.11,0.28-0.24,0.37c-0.03-0.02-0.05-0.02-0.06-0.04   c-0.07-0.09-0.05-0.2-0.08-0.3c-0.3-1.05-0.82-2-1.37-2.92c-0.62-1.03-1.44-1.9-2.21-2.81c-0.55-0.65-1.13-1.26-1.7-1.89   c-0.91-1-1.87-1.95-2.84-2.88c-0.7-0.67-1.44-1.29-2.16-1.95c-0.68-0.62-1.39-1.19-2.11-1.76c-0.76-0.6-1.53-1.18-2.33-1.74   c-1.17-0.82-2.32-1.67-3.5-2.47c-1.35-0.92-2.73-1.8-4.1-2.69c-0.83-0.54-1.66-1.09-2.42-1.74c-0.22-0.18-0.44-0.38-0.7-0.5   c0.12,0.21,0.3,0.37,0.49,0.51c0.27,0.21,0.56,0.4,0.82,0.63c0.71,0.62,1.48,1.13,2.25,1.66c0.87,0.61,1.77,1.18,2.66,1.76   c1.16,0.77,2.3,1.58,3.42,2.39c0.88,0.64,1.81,1.22,2.61,1.96c0.56,0.51,1.07,1.06,1.53,1.66c0.57,0.73,1.03,1.53,1.54,2.31   c0.71,1.1,1.43,2.19,2.09,3.32c0.38,0.66,0.79,1.3,1.26,1.9c0.39,0.51,0.76,1.03,1.09,1.58c0.54,0.9,1.07,1.8,1.6,2.7   c0.68,1.16,1.21,2.39,1.65,3.66c0.04,0.11,0.05,0.22-0.07,0.3c-0.2,0.14-0.4,0.28-0.59,0.42c-0.1,0.07-0.18,0.06-0.24-0.03   c-0.14-0.22-0.36-0.38-0.5-0.6c-0.49-0.75-1.08-1.43-1.68-2.08c-0.85-0.92-1.68-1.86-2.62-2.7c-0.82-0.72-1.69-1.37-2.53-2.07   c-0.57-0.48-1.14-0.95-1.71-1.43c-0.22-0.19-0.44-0.38-0.59-0.62c-0.39-0.59-0.77-1.19-1.2-1.75c-0.39-0.5-0.74-1.03-1.15-1.5   c-0.72-0.82-1.37-1.7-2.09-2.51c-0.46-0.53-0.91-1.06-1.39-1.58c-0.57-0.63-1.14-1.26-1.67-1.92c-0.77-0.98-1.58-1.93-2.42-2.85   c-0.88-0.95-1.8-1.87-2.71-2.8c-0.12-0.12-0.23-0.27-0.4-0.34c0.32,0.53,0.7,1,1.11,1.46c0.87,0.98,1.79,1.91,2.65,2.89   c0.48,0.55,0.96,1.09,1.43,1.65c0.41,0.48,0.81,0.97,1.24,1.43c0.26,0.28,0.55,0.55,0.73,0.9c0.28,0.53,0.42,1.11,0.56,1.69   c0.14,0.63,0.29,1.26,0.43,1.89c0.14,0.62,0.3,1.25,0.32,1.88c0.03,0.74,0.1,1.49,0.09,2.23c-0.02,1.19,0.01,2.37-0.06,3.56   c-0.08,1.3,0.03,2.6,0.03,3.9c0,0.24,0,0.49,0.04,0.72c0.13,0.76,0.2,1.52,0.36,2.27c0.02,0.07,0.03,0.16-0.04,0.21   c-0.06,0.03-0.11,0-0.15-0.02c-0.69-0.22-1.36-0.5-2.03-0.8c-0.81-0.36-1.57-0.81-2.23-1.41c-0.47-0.43-0.96-0.84-1.43-1.28   c-0.42-0.39-0.86-0.75-1.22-1.21c-0.58-0.75-1.22-1.44-1.81-2.18c-0.45-0.56-0.9-1.12-1.23-1.76c-0.79-1.51-1.65-2.98-2.39-4.52   c-0.43-0.9-0.96-1.74-1.38-2.64c-0.03-0.06-0.04-0.13-0.14-0.14c0.04,0.25,0.09,0.48,0.2,0.7c0.23,0.47,0.48,0.94,0.33,1.5   c-0.03,0.12-0.01,0.26-0.01,0.39c0,0.07-0.01,0.14-0.02,0.21c-0.07,0.51-0.14,1.02-0.22,1.54c-0.08,0.54-0.15,1.07-0.25,1.61   c-0.09,0.52-0.16,1.04-0.22,1.56c-0.05,0.47-0.11,0.94-0.2,1.41c-0.08,0.38-0.13,0.76-0.18,1.15c-0.05,0.32-0.08,0.63-0.13,0.95   c-0.06,0.41-0.14,0.82-0.18,1.23c-0.05,0.5-0.12,0.99-0.18,1.49c-0.09,0.77-0.16,1.55-0.2,2.32c-0.03,0.81-0.01,1.63-0.01,2.44   c0,0.1,0.04,0.2-0.01,0.32c-0.24-0.05-0.42-0.2-0.58-0.37c-0.49-0.53-0.89-1.13-1.18-1.79c-0.09-0.2-0.25-0.39-0.23-0.63   c0.03-0.4,0.07-0.81,0.16-1.21c0.15-0.68,0.3-1.37,0.42-2.06c0.19-1.05,0.33-2.1,0.44-3.16c0.07-0.68,0.15-1.36,0.28-2.03   c0.15-0.75,0.28-1.5,0.45-2.24c0.1-0.46,0.1-0.95,0.32-1.38c0.02-0.04,0.03-0.1,0.01-0.15c-0.02-0.11-0.01-0.2,0.02-0.31   c0.09-0.34,0.17-0.69,0.26-1.03c0.14-0.58,0.26-1.16,0.27-1.77c0.15-0.01,0.25-0.05,0.27-0.2c0.04-0.29,0.03-0.58-0.13-0.87   c-0.18,0.27,0,0.54-0.05,0.77c-0.09,0.06-0.11-0.06-0.16-0.04c-0.1,0.07-0.06,0.21-0.16,0.28c-0.21-0.2-0.01-0.52-0.2-0.72   c-0.12,0.04-0.08,0.13-0.07,0.2c0.08,0.62,0.15,1.24-0.02,1.85c-0.08,0.27-0.15,0.57-0.4,0.73c-0.52,0.33-1.08,0.56-1.72,0.59   c-0.78,0.03-1.51-0.08-2.19-0.48c-0.34-0.2-0.46-0.5-0.56-0.85c-0.13-0.44-0.09-0.89-0.08-1.33c0.01-0.16,0-0.31,0.06-0.46   c0.04-0.09,0.03-0.18-0.07-0.24c-0.18,0.25-0.08,0.53-0.15,0.79c-0.16-0.07-0.12-0.25-0.19-0.33c-0.08-0.05-0.11,0.08-0.19,0.01   c-0.03-0.23,0.04-0.48-0.04-0.77c-0.15,0.26-0.17,0.49-0.16,0.72c0.01,0.26,0.03,0.29,0.3,0.39c0,0.52,0.09,1.03,0.23,1.53   c0.19,0.68,0.26,1.39,0.47,2.06c0.01,0.03,0.01,0.07,0.01,0.1c0.17,0.88,0.33,1.77,0.5,2.65c0.1,0.48,0.2,0.96,0.27,1.45   c0.14,1.06,0.2,2.14,0.39,3.19c0.1,0.54,0.16,1.08,0.28,1.61c0.19,0.86,0.39,1.72,0.48,2.6c0.01,0.1,0.02,0.2-0.03,0.3   c-0.34,0.76-0.73,1.49-1.29,2.12c-0.18,0.21-0.38,0.4-0.65,0.46c-0.08-0.07-0.06-0.16-0.06-0.23c0.01-0.49,0.01-0.99,0.01-1.48   c-0.02-0.84-0.01-1.68-0.08-2.51c-0.01-0.06-0.01-0.12-0.03-0.18c-0.08-0.35-0.08-0.7-0.12-1.05c-0.06-0.5-0.13-1.01-0.21-1.51   c-0.06-0.42-0.15-0.83-0.19-1.25c-0.06-0.6-0.16-1.2-0.26-1.79c-0.13-0.72-0.15-1.44-0.28-2.16c-0.07-0.39-0.12-0.78-0.18-1.17   c-0.07-0.43-0.15-0.85-0.21-1.28c-0.07-0.54-0.12-1.08-0.2-1.62c-0.09-0.65-0.04-1.27,0.32-1.85c0.13-0.21,0.15-0.46,0.21-0.71   c-0.1,0.01-0.12,0.06-0.14,0.11c-0.29,0.63-0.65,1.22-0.97,1.83c-0.56,1.06-1.06,2.16-1.65,3.21c-0.43,0.77-0.81,1.57-1.26,2.33   c-0.49,0.83-1.11,1.57-1.73,2.3c-0.51,0.6-1,1.22-1.53,1.8c-0.49,0.54-1.04,1.01-1.59,1.49c-0.49,0.43-0.95,0.88-1.49,1.25   c-1.09,0.73-2.3,1.19-3.53,1.63c-0.05,0.02-0.11,0.05-0.18-0.02c0.05-0.35,0.1-0.72,0.16-1.08c0.07-0.44,0.15-0.88,0.2-1.33   c0.14-1.25,0.06-2.51,0.1-3.76c0.02-0.75-0.05-1.5-0.07-2.26c-0.03-1.34,0-2.68,0.05-4.03c0.02-0.49,0.07-0.98,0.18-1.46   c0.11-0.52,0.25-1.04,0.36-1.56c0.15-0.67,0.27-1.35,0.48-2.01c0.15-0.46,0.31-0.92,0.65-1.28c0.61-0.64,1.18-1.31,1.74-1.99   c0.72-0.86,1.47-1.68,2.22-2.51c0.85-0.94,1.76-1.82,2.52-2.83c0.13-0.17,0.31-0.32,0.37-0.56c-0.13,0.02-0.17,0.11-0.24,0.18   c-0.63,0.61-1.2,1.27-1.82,1.89C38.07,49.46,37,50.68,36,51.94c-0.7,0.88-1.46,1.71-2.19,2.56c-0.43,0.5-0.9,0.96-1.3,1.48   c-0.85,1.09-1.79,2.11-2.62,3.22c-0.44,0.59-0.89,1.16-1.28,1.79c-0.19,0.31-0.38,0.63-0.67,0.89c-0.61,0.54-1.21,1.08-1.85,1.58   c-0.43,0.34-0.85,0.71-1.3,1.03c-0.86,0.62-1.64,1.34-2.37,2.1c-0.79,0.82-1.6,1.64-2.3,2.54c-0.22,0.28-0.48,0.52-0.67,0.83   c-0.22,0.35-0.5,0.64-0.75,0.96c-0.06,0.07-0.12,0.15-0.22,0.17c-0.24-0.13-0.46-0.31-0.68-0.47c-0.08-0.06-0.12-0.13-0.08-0.24   c0.28-0.84,0.59-1.66,0.99-2.45c0.77-1.51,1.65-2.96,2.56-4.39c0.43-0.68,0.95-1.29,1.4-1.96c0.56-0.84,1.03-1.74,1.58-2.59   c0.51-0.78,1.02-1.57,1.52-2.36c0.52-0.83,1.06-1.64,1.7-2.38c0.57-0.65,1.18-1.25,1.87-1.75c1.62-1.17,3.23-2.34,4.89-3.46   c1.23-0.82,2.49-1.6,3.68-2.48c0.26-0.19,0.56-0.35,0.81-0.56c0.48-0.4,0.99-0.79,1.48-1.17c0.2-0.15,0.37-0.34,0.52-0.54   c-0.19,0.1-0.35,0.22-0.51,0.35c-0.43,0.34-0.83,0.71-1.28,1.01c-1.04,0.7-2.09,1.38-3.14,2.06c-0.97,0.63-1.93,1.25-2.87,1.91   c-0.94,0.66-1.87,1.34-2.81,2c-0.76,0.53-1.51,1.08-2.23,1.65c-0.88,0.69-1.74,1.4-2.56,2.15c-0.94,0.86-1.9,1.69-2.81,2.59   c-0.86,0.85-1.67,1.73-2.49,2.61c-0.6,0.65-1.18,1.34-1.76,2.01c-0.66,0.77-1.3,1.55-1.8,2.43c-0.39,0.69-0.76,1.38-1.01,2.13   c-0.09,0.26-0.16,0.54-0.24,0.83c-0.17-0.13-0.25-0.3-0.29-0.47c-0.13-0.5-0.25-1.01-0.26-1.53c-0.02-0.55,0.03-1.06,0.32-1.57   c1.07-1.88,2.37-3.58,3.84-5.15c1.37-1.46,2.79-2.87,4.27-4.22c0.84-0.77,1.67-1.57,2.53-2.32c0.93-0.81,1.9-1.56,2.87-2.32   c0.37-0.29,0.78-0.52,1.14-0.83c0.79-0.69,1.69-1.24,2.55-1.83c1.12-0.78,2.3-1.48,3.44-2.24c0.51-0.34,0.99-0.72,1.52-1.03   c1.04-0.62,2.1-1.21,3.11-1.88c0.24-0.16,0.45-0.34,0.62-0.57c-1.02,0.39-2.04,0.77-3,1.28c-0.14,0.07-0.28,0.11-0.42,0.07   c-0.43-0.12-0.91-0.05-1.26-0.4c-0.04-0.04-0.11-0.06-0.17-0.07c-0.28-0.08-0.51-0.24-0.75-0.4c-0.14-0.09-0.27-0.19-0.42-0.26   c-0.21-0.11-0.43-0.12-0.64,0.01c-0.18,0.11-0.32,0.03-0.31-0.19c0.01-0.29-0.12-0.53-0.31-0.72c-0.27-0.28-0.51-0.59-0.71-0.92   c-0.07-0.11-0.16-0.22-0.31-0.16c-0.15,0.06-0.12,0.2-0.09,0.32c0.08,0.35,0.13,0.7,0.27,1.03c0.15,0.38,0.38,0.72,0.86,0.76   c0.22,0.02,0.4,0.16,0.47,0.39c0.05,0.18,0.16,0.32,0.3,0.45c0.37,0.34,0.79,0.59,1.27,0.73c0.24,0.07,0.48,0.07,0.7-0.07   c0.1-0.06,0.21-0.12,0.35-0.08c-0.03,0.11-0.11,0.13-0.19,0.18c-0.24,0.14-0.49,0.27-0.72,0.41c-2.55,1.52-4.99,3.19-7.32,5.02   c-1,0.79-2,1.57-2.95,2.42c-1.22,1.1-2.42,2.23-3.63,3.35c-1.05,0.97-2.06,1.98-3.08,2.98c-1.08,1.05-2.02,2.24-2.94,3.43   c-0.59,0.76-1.1,1.57-1.52,2.44c-0.15,0.32-0.32,0.63-0.36,1c-0.06,0.51-0.02,1.02,0,1.53c0,0.03,0,0.05,0.01,0.08   c0.1,0.49,0.24,0.97,0.36,1.45c0.17,0.65,0.44,1.25,0.74,1.85c0.05,0.1,0.1,0.21,0.24,0.25c-0.07-0.37-0.35-0.64-0.27-1.02   c0.19,0.22,0.42,0.38,0.54,0.65c0.19,0.43,0.43,0.83,0.71,1.2c0.06,0.08,0.12,0.17,0.25,0.12c0.06-0.24-0.28-0.39-0.13-0.68   c0.34,0.28,0.75,0.45,0.96,0.86c0.1,0.21,0.25,0.39,0.41,0.57c0.12,0.14,0.28,0.24,0.48,0.3c0-0.22-0.27-0.32-0.21-0.57   c0.14,0.08,0.27,0.15,0.4,0.21c0.52,0.25,1.01,0.53,1.36,1.01c0.08,0.1,0.19,0.2,0.32,0.23c0.14-0.15-0.08-0.21-0.06-0.33   c0.09-0.01,0.16,0.05,0.23,0.09c0.23,0.11,0.45,0.22,0.68,0.32c0.18,0.08,0.32,0.17,0.42,0.35c0.17,0.29,0.41,0.51,0.74,0.67   c0.07-0.24-0.23-0.36-0.11-0.6c0.38,0.18,0.84,0.16,1.17,0.5c0.15,0.15,0.33,0.28,0.5,0.41c0.13,0.1,0.27,0.2,0.48,0.21   c-0.08-0.27-0.38-0.35-0.45-0.59c0.06-0.08,0.12-0.03,0.18-0.02c0.31,0.05,0.61,0.13,0.92,0.15c0.2,0.02,0.35,0.07,0.47,0.22   c0.15,0.18,0.37,0.25,0.56,0.38c0.07,0.05,0.18,0.08,0.24,0c0.08-0.1-0.03-0.15-0.09-0.2c-0.08-0.08-0.21-0.12-0.23-0.3   c0.41,0.06,0.82,0.04,1.21,0.17c0.05,0.02,0.1,0.06,0.15,0.1c0.18,0.17,0.41,0.26,0.62,0.38c0.05,0.03,0.11,0.06,0.16-0.02   c-0.03-0.17-0.29-0.18-0.29-0.4c0.27,0,0.54,0.01,0.8,0c0.23-0.01,0.42,0.04,0.6,0.18c0.11,0.09,0.22,0.17,0.37,0.18   c0.04,0.01,0.08-0.02,0.1-0.09c0.02-0.06-0.13-0.09-0.07-0.19c0.29-0.1,0.57-0.15,0.87-0.01c0.26,0.12,0.3,0.08,0.3-0.21   c0.17-0.08,0.36-0.11,0.55-0.16c0.22-0.07,0.26-0.03,0.31,0.2c0.04,0.15-0.01,0.33,0.13,0.44c0.13,0,0.12-0.17,0.24-0.15   c0.19,0.15,0.24,0.36,0.29,0.57c0.04,0.18,0.09,0.35,0.14,0.53c0.03,0.09,0.06,0.19,0.18,0.17c0.08-0.08-0.07-0.17,0.03-0.24   c0.06,0,0.1,0.05,0.12,0.09c0.11,0.26,0.31,0.43,0.5,0.63c0.09,0.09,0.13,0.19,0.16,0.31c0.05,0.24,0.09,0.51,0.3,0.72   c0.11-0.21-0.01-0.38-0.01-0.55c0.06-0.03,0.1-0.01,0.13,0.02c0.29,0.25,0.62,0.44,0.94,0.64c0.13,0.08,0.2,0.17,0.25,0.31   c0.07,0.19,0.13,0.39,0.28,0.54c0.22-0.16-0.06-0.35,0.07-0.53c0.34,0.18,0.68,0.33,1.04,0.43c0.17,0.04,0.25,0.13,0.23,0.31   c-0.01,0.06,0.01,0.12,0.04,0.18c0.03,0.07,0.04,0.16,0.15,0.15c0.11-0.01,0.09-0.11,0.1-0.18c0.01-0.08-0.03-0.16,0.03-0.22   c0.07-0.05,0.14-0.03,0.2-0.02c0.37,0.09,0.74,0.18,1.12,0.22c0.13,0.01,0.15,0.09,0.15,0.2c0,0.17,0.01,0.34,0.13,0.5   c0.17-0.18,0.11-0.42,0.19-0.6c0.5,0,0.98,0,1.46,0c0.05,0.23-0.18,0.44,0,0.66c0.13-0.04,0.19-0.14,0.21-0.25   c0.09-0.38,0.32-0.58,0.72-0.57c0.19,0.01,0.36-0.11,0.57-0.07c-0.05,0.11-0.08,0.19-0.12,0.28c-0.03,0.09-0.13,0.2-0.01,0.28   c0.12,0.08,0.21-0.04,0.28-0.11c0.16-0.15,0.28-0.34,0.38-0.53c0.06-0.11,0.13-0.17,0.25-0.19c0.29-0.06,0.58-0.14,0.88-0.21   c0.02,0,0.04,0.02,0.08,0.04c-0.08,0.23-0.29,0.38-0.36,0.6c0.06,0.03,0.1,0.01,0.13-0.02c0.19-0.19,0.44-0.32,0.59-0.54   c0.17-0.24,0.39-0.38,0.67-0.44c0.32-0.07,0.61-0.23,0.98-0.29c-0.13,0.26-0.33,0.44-0.41,0.68c0.07,0.02,0.1-0.01,0.13-0.04   c0.23-0.23,0.45-0.46,0.67-0.68c0.1-0.1,0.19-0.2,0.32-0.26c0.3-0.12,0.61-0.25,0.91-0.38c0.04-0.02,0.09-0.07,0.15,0.01   c-0.12,0.2-0.24,0.41-0.36,0.62c0.02,0.01,0.03,0.02,0.05,0.03c0.25-0.24,0.52-0.47,0.72-0.77c0.22-0.32,0.59-0.4,0.9-0.57   c0.01-0.01,0.05,0.02,0.08,0.03c-0.03,0.24-0.25,0.43-0.2,0.71c0.24-0.12,0.31-0.35,0.41-0.54c0.11-0.21,0.15-0.45,0.3-0.63   c0.48-0.59,0.8-1.25,0.97-1.99c0.02-0.06,0.03-0.14,0.12-0.14c0.01,0.02,0.03,0.04,0.04,0.06c0.15,0.55,0.32,1.1,0.65,1.57   c0.28,0.4,0.54,0.82,0.72,1.28c0.03,0.09,0.09,0.17,0.15,0.24c0.05,0.06,0.09,0.15,0.21,0.13c0.01-0.25-0.2-0.45-0.21-0.69   c0.03-0.02,0.05-0.03,0.06-0.03c0.02,0,0.04,0,0.05,0c0.34,0.19,0.73,0.31,0.95,0.68c0.15,0.26,0.38,0.45,0.62,0.63   c-0.05-0.25-0.25-0.43-0.32-0.71c0.36,0.15,0.68,0.3,1.01,0.42c0.16,0.06,0.29,0.15,0.39,0.29c0.18,0.25,0.41,0.45,0.63,0.66   c0.04,0.03,0.08,0.1,0.17,0.04c-0.14-0.21-0.28-0.42-0.41-0.63c0.04-0.02,0.05-0.03,0.07-0.03c0.12,0.01,0.21,0.07,0.32,0.1   c0.59,0.15,1.13,0.37,1.51,0.87c0.11,0.15,0.27,0.28,0.48,0.35c-0.07-0.26-0.31-0.4-0.36-0.68c0.3,0.07,0.56,0.13,0.83,0.18   c0.2,0.04,0.33,0.14,0.43,0.33c0.09,0.19,0.23,0.37,0.4,0.51c0.06,0.05,0.12,0.08,0.19,0.04c0.07-0.04,0.06-0.12,0.04-0.19   c-0.02-0.13-0.13-0.22-0.14-0.35c0.03-0.02,0.06-0.04,0.08-0.04c0.29,0.06,0.59,0.13,0.89,0.15c0.1,0.01,0.12,0.08,0.15,0.15   c0.07,0.16,0.14,0.32,0.21,0.47c0.03,0.06,0.06,0.14,0.14,0.12c0.11-0.02,0.07-0.12,0.07-0.19c0.01-0.15-0.11-0.29-0.06-0.48   c0.45,0,0.9,0,1.35,0c0.11,0,0.12,0.07,0.14,0.15c0.03,0.15,0.03,0.31,0.1,0.43c0.07,0.01,0.1-0.02,0.12-0.06   c0.06-0.1,0.04-0.22,0.04-0.33c0.01-0.18,0.06-0.28,0.27-0.3c0.2-0.02,0.41-0.07,0.61-0.11c0.2-0.04,0.39-0.14,0.6-0.1   c0.05,0.1,0,0.2,0.02,0.29c0.01,0.06,0.02,0.12,0.09,0.14c0.08,0.02,0.14-0.03,0.16-0.1c0.02-0.07,0.05-0.15,0.05-0.23   c0-0.19,0.12-0.28,0.28-0.33c0.25-0.07,0.49-0.18,0.73-0.28c0.09-0.04,0.16-0.13,0.27-0.11c0.16,0.15-0.15,0.35,0.06,0.5   c0.15-0.13,0.21-0.3,0.26-0.47c0.06-0.19,0.16-0.33,0.35-0.43c0.27-0.14,0.51-0.32,0.75-0.5c0.06-0.05,0.12-0.13,0.24-0.08   c0.03,0.16-0.14,0.32,0,0.49c0.18-0.09,0.22-0.27,0.23-0.42c0.03-0.37,0.27-0.6,0.48-0.86c0.12-0.14,0.18-0.31,0.32-0.42   c0.12,0.03,0.01,0.19,0.16,0.19c0.29-0.37,0.14-0.94,0.55-1.27c0.11,0.04,0.08,0.19,0.22,0.2c0.12-0.13,0.11-0.31,0.12-0.47   c0.01-0.18,0.09-0.24,0.25-0.19c0.21,0.06,0.44,0.08,0.64,0.19c0.01,0.29,0.03,0.31,0.28,0.19c0.32-0.15,0.62-0.07,0.93,0.02   c-0.04,0.1-0.18,0.14-0.08,0.27c0.33-0.01,0.52-0.37,0.86-0.36c0.32,0.01,0.63,0,0.95,0c0.01,0.23-0.27,0.22-0.3,0.4   c0.07,0.08,0.13,0.04,0.19,0.01c0.2-0.12,0.42-0.21,0.59-0.37c0.15-0.14,0.33-0.19,0.52-0.2c0.17-0.01,0.34-0.03,0.52-0.06   c0.12-0.02,0.25-0.06,0.37,0.03c-0.11,0.18-0.37,0.22-0.42,0.45c0.13,0.11,0.23,0.03,0.34-0.02c0.4-0.19,0.66-0.65,1.19-0.6   c0.3,0.02,0.58-0.12,0.89-0.15c0.02,0.32-0.44,0.32-0.41,0.66c0.27-0.11,0.49-0.25,0.69-0.43c0.31-0.27,0.63-0.54,1.07-0.59   c0.13-0.01,0.24-0.11,0.38-0.08c0.04,0.22-0.2,0.35-0.16,0.59c0.25-0.1,0.45-0.26,0.55-0.45c0.26-0.47,0.72-0.64,1.16-0.84   c0.06-0.03,0.11-0.06,0.16-0.08c0.05-0.03,0.1-0.07,0.15-0.03c0.06,0.11-0.11,0.17-0.03,0.29c0.2-0.06,0.36-0.19,0.49-0.35   c0.41-0.55,1.03-0.76,1.61-1.08c0.08,0.25-0.23,0.34-0.17,0.56c0.21-0.08,0.39-0.18,0.52-0.35c0.13-0.18,0.27-0.34,0.37-0.53   c0.22-0.41,0.64-0.57,0.98-0.89c0.08,0.31-0.16,0.48-0.19,0.72c0.18,0.05,0.24-0.07,0.32-0.17c0.29-0.38,0.5-0.8,0.71-1.23   c0.11-0.23,0.29-0.41,0.52-0.54c0.01,0.35-0.22,0.63-0.27,0.96c0.07-0.01,0.09-0.04,0.11-0.07c0.04-0.06,0.08-0.12,0.11-0.18   c0.35-0.65,0.61-1.33,0.8-2.04c0.16-0.58,0.31-1.16,0.34-1.77c0-0.08,0.03-0.15,0.04-0.23c0-0.23,0-0.45,0-0.68   C85.99,64.76,85.82,64.34,85.61,63.93z M17.57,70.4c-0.22-0.08-0.38-0.24-0.54-0.39c-0.56-0.51-1.07-1.06-1.6-1.6   c-0.1-0.11-0.13-0.21-0.1-0.37c0.26-1.2,0.87-2.23,1.49-3.26c0.61-0.99,1.41-1.83,2.17-2.71c0.86-1,1.77-1.94,2.68-2.9   c0.91-0.95,1.88-1.85,2.86-2.73c0.73-0.65,1.45-1.31,2.2-1.94c0.12-0.1,0.25-0.2,0.38-0.29c0.01,0.01,0.02,0.02,0.03,0.03   c-0.31,0.43-0.62,0.87-0.95,1.29c-0.24,0.31-0.45,0.63-0.65,0.97c-0.41,0.71-0.91,1.36-1.34,2.07c-0.61,1.01-1.23,2.01-1.86,3   c-0.43,0.68-0.96,1.29-1.38,1.98c-0.89,1.46-1.81,2.91-2.52,4.47c-0.33,0.73-0.61,1.48-0.82,2.26   C17.62,70.32,17.59,70.34,17.57,70.4z M28.04,62.17c0.01,0.05-0.03,0.05-0.06,0.07C27.99,62.21,27.99,62.17,28.04,62.17z    M22.08,72.87c-1.12-0.38-2.2-0.84-3.19-1.5c-0.05-0.03-0.1-0.07-0.14-0.11c-0.01-0.01-0.01-0.03-0.02-0.05   c0.01-0.02,0.02-0.05,0.03-0.07c0.69-0.64,1.23-1.4,1.85-2.11c0.52-0.6,1.09-1.16,1.61-1.76c0.67-0.77,1.42-1.47,2.18-2.15   c0.7-0.62,1.43-1.23,2.17-1.81c0.28-0.22,0.54-0.46,0.8-0.69c0.01,0.01,0.03,0.03,0.04,0.04c-0.22,0.33-0.44,0.66-0.67,0.98   c-0.72,1-1.26,2.1-1.82,3.19c-0.78,1.49-1.38,3.05-2.07,4.58c-0.19,0.42-0.33,0.87-0.47,1.31C22.31,72.9,22.22,72.92,22.08,72.87z    M25.69,73.69c-0.9-0.06-1.78-0.27-2.64-0.51c-0.14-0.04-0.28-0.08-0.42-0.12c-0.21-0.07-0.22-0.08-0.15-0.29   c0.21-0.6,0.45-1.19,0.71-1.77c0.41-0.9,0.81-1.81,1.24-2.71c0.38-0.78,0.79-1.54,1.18-2.31c0.46-0.92,1.04-1.75,1.61-2.6   c0.22-0.33,0.43-0.67,0.65-1c0.03-0.04,0.05-0.09,0.1-0.11c0.05,0.07,0.01,0.14-0.02,0.21c-0.2,0.49-0.31,1-0.35,1.53   c-0.04,0.45-0.1,0.91-0.2,1.35c-0.04,0.18-0.01,0.36-0.02,0.54c-0.05,0.85-0.11,1.71-0.23,2.55c-0.14,0.94-0.2,1.89-0.46,2.81   c-0.21,0.74-0.36,1.51-0.66,2.23C25.94,73.66,25.86,73.7,25.69,73.69z M32.19,72.79c-0.01,0.2-0.1,0.28-0.28,0.34   c-0.76,0.24-1.53,0.42-2.32,0.53c-1.06,0.15-2.12,0.18-3.19,0.08c-0.22-0.02-0.25-0.06-0.15-0.26c0.27-0.56,0.37-1.18,0.56-1.77   c0.23-0.74,0.35-1.5,0.44-2.26c0.06-0.5,0.14-1.01,0.18-1.52c0.07-0.8,0.12-1.6,0.16-2.41c0.03-0.6,0.14-1.2,0.19-1.8   c0.09-0.98,0.49-1.85,0.95-2.69c0.2-0.37,0.48-0.7,0.74-1.03c0.37-0.47,0.77-0.93,1.15-1.4c0.47-0.58,0.98-1.12,1.43-1.72   c0.45-0.59,0.95-1.14,1.44-1.7c0.04-0.05,0.08-0.08,0.13-0.11c0.02,0.24-0.11,0.44-0.17,0.66c-0.16,0.62-0.3,1.24-0.44,1.86   c-0.11,0.48-0.22,0.96-0.32,1.44c-0.1,0.5-0.13,1.01-0.17,1.52c-0.1,1.31-0.08,2.61-0.07,3.92c0,0.85,0.11,1.69,0.07,2.54   c-0.05,1.04-0.01,2.08-0.08,3.12c-0.04,0.6-0.09,1.2-0.18,1.8C32.23,72.22,32.21,72.51,32.19,72.79z M36.89,77.84   c-1.52-0.47-2.87-1.2-3.83-2.52c-0.24-0.33-0.48-0.66-0.71-0.99c-0.05-0.07-0.11-0.13-0.11-0.25c0.34-0.14,0.69-0.29,1.04-0.44   c1.71-0.73,3.33-1.62,4.78-2.79c0.24-0.19,0.44-0.42,0.66-0.63c0.8-0.74,1.59-1.5,2.23-2.39c1.18-1.65,2.23-3.38,3.11-5.21   c0.13-0.26,0.25-0.52,0.34-0.8c0.06-0.18,0.14-0.36,0.26-0.52c0.02,0.01,0.05,0.02,0.07,0.03c-0.06,0.24-0.12,0.48-0.18,0.71   c-0.11,0.43-0.19,0.85-0.22,1.3c-0.04,0.55-0.1,1.1-0.17,1.65c-0.12,1.02-0.6,1.87-1.14,2.72c-0.45,0.72-0.92,1.42-1.41,2.11   c-0.21,0.3-0.46,0.59-0.7,0.87c-0.13,0.16-0.26,0.33-0.35,0.51c-0.55,1.08-1.08,2.17-1.6,3.26c-0.4,0.83-0.89,1.62-1.33,2.44   c-0.14,0.26-0.29,0.51-0.41,0.78C37.14,77.84,37.04,77.89,36.89,77.84z M39.98,77.78c-0.12,0.33-0.14,0.34-0.49,0.32   c-0.6-0.03-1.19-0.02-1.79-0.1c-0.14-0.02-0.27-0.03-0.42-0.12c0.03-0.17,0.13-0.31,0.22-0.46c0.46-0.79,0.94-1.57,1.4-2.37   c0.37-0.64,0.66-1.33,1-1.99c0.34-0.68,0.63-1.38,1.05-2.02c0.12-0.18,0.26-0.35,0.4-0.51c0.55-0.63,1-1.33,1.46-2.02   c0.27-0.4,0.5-0.83,0.75-1.25c0.03-0.05,0.04-0.12,0.14-0.14c0.02,0.19-0.06,0.34-0.09,0.49c-0.19,0.92-0.54,1.8-0.89,2.67   c-0.39,0.98-0.75,1.97-1.11,2.96c-0.31,0.86-0.66,1.71-0.95,2.58C40.43,76.48,40.21,77.13,39.98,77.78z M45.37,76.8   c-1.54,0.59-3.14,0.99-4.75,1.31c-0.23,0.05-0.4,0.04-0.59-0.02c-0.01-0.14,0.08-0.26,0.13-0.38c0.48-1.21,0.97-2.42,1.44-3.64   c0.49-1.25,0.97-2.5,1.43-3.75c0.27-0.72,0.54-1.44,0.66-2.2c0.04-0.25,0.12-0.49,0.18-0.74c0.02,0,0.04,0.01,0.07,0.01   c0.02,0.22,0.06,0.44,0.06,0.67c-0.02,0.9,0.19,1.76,0.42,2.62c0.23,0.86,0.51,1.7,0.65,2.58c0.1,0.63,0.26,1.24,0.36,1.87   c0.06,0.41,0.1,0.82,0.19,1.22C45.67,76.66,45.64,76.7,45.37,76.8z M47.49,75.81c-0.01,0.08-0.06,0.12-0.12,0.16   c-0.49,0.25-1,0.47-1.55,0.67c-0.04-0.24-0.09-0.47-0.12-0.69c-0.08-0.63-0.17-1.26-0.29-1.89c-0.09-0.48-0.14-0.97-0.25-1.45   c-0.19-0.85-0.42-1.69-0.67-2.52c-0.19-0.66-0.33-1.34-0.35-2.03c-0.01-0.24-0.07-0.48-0.07-0.72c-0.02-0.7,0.08-1.37,0.27-2.04   c0.02-0.08,0-0.15,0.01-0.23c0.06-0.64,0.15-1.28,0.19-1.93c0.03-0.43,0.14-0.85,0.26-1.26c0.12-0.44,0.21-0.89,0.26-1.34   c0.01-0.05-0.01-0.11,0.01-0.15c0.2-0.38,0.29-0.81,0.49-1.2c0.09,0.04,0.08,0.09,0.08,0.13c0.01,0.67,0.13,1.32,0.21,1.98   c0.09,0.74,0.24,1.48,0.34,2.22c0.09,0.62,0.13,1.25,0.23,1.87c0.08,0.55,0.19,1.1,0.28,1.66c0.06,0.4,0.11,0.8,0.17,1.2   c0.06,0.41,0.11,0.82,0.2,1.22c0.05,0.23,0.06,0.46,0.1,0.69c0.09,0.54,0.11,1.08,0.18,1.62c0.1,0.79,0.15,1.58,0.15,2.38   c0,0.22,0.02,0.45,0.05,0.67C47.6,75.15,47.52,75.48,47.49,75.81z M48.39,62.21c-0.02-0.22-0.08-0.44-0.12-0.66   c-0.03-0.17,0.01-0.2,0.18-0.17c0.29,0.06,0.58,0.12,0.86,0.19c0.56,0.14,1.12,0.06,1.67-0.07c0.17-0.04,0.34-0.07,0.51-0.12   c0.15-0.04,0.22,0.01,0.2,0.17c-0.05,0.31-0.11,0.61-0.17,0.92c-0.01,0.07-0.05,0.13-0.13,0.15c-0.47,0.08-0.9,0.31-1.29,0.26   c-0.52,0-0.9-0.12-1.3-0.2C48.51,62.61,48.42,62.47,48.39,62.21z M48.98,65.26c-0.06-0.31-0.12-0.63-0.18-0.94   c-0.03-0.17,0.02-0.21,0.21-0.18c0.51,0.1,1.02,0.06,1.53,0.05c0.14,0,0.27-0.04,0.41-0.06c0.19-0.02,0.22,0.01,0.19,0.19   c-0.05,0.31-0.11,0.61-0.15,0.92c-0.02,0.12-0.07,0.19-0.19,0.22c-0.27,0.07-0.54,0.12-0.79,0.15c-0.31-0.01-0.59-0.09-0.87-0.15   C49.03,65.44,49,65.36,48.98,65.26z M49.28,67.94c-0.04-0.41-0.08-0.82-0.13-1.27c0.57,0.11,1.07,0.11,1.56,0.02   c0.07,0.05,0.06,0.1,0.06,0.15c-0.03,0.35-0.07,0.7-0.1,1.05c-0.01,0.12-0.06,0.17-0.19,0.19c-0.34,0.06-0.68,0.06-1.03,0   C49.36,68.08,49.3,68.04,49.28,67.94z M49.93,70.5c-0.11-0.01-0.21-0.02-0.24-0.15c-0.07-0.32-0.15-0.63-0.16-0.99   c0.31,0.01,0.6,0.04,0.89-0.02c0.02,0.24-0.06,0.46-0.08,0.67c-0.01,0.07-0.03,0.13-0.05,0.2C50.25,70.46,50.18,70.52,49.93,70.5z    M71.91,62.15c0,0,0.02,0,0.02,0.01c0,0,0,0.01,0,0.02c-0.01,0-0.01,0.01-0.02,0.01C71.89,62.17,71.89,62.16,71.91,62.15z    M54.3,75.64c-0.03,0.31-0.04,0.64-0.18,0.95c-0.16,0-0.28-0.08-0.41-0.13c-0.36-0.15-0.71-0.31-1.07-0.47   c-0.14-0.06-0.2-0.15-0.2-0.3c0.01-0.74-0.02-1.47,0.01-2.21c0.02-0.62,0.07-1.24,0.15-1.86c0.12-0.87,0.21-1.75,0.35-2.61   c0.1-0.59,0.2-1.19,0.27-1.79c0.06-0.53,0.19-1.05,0.26-1.58c0.04-0.32,0.11-0.63,0.12-0.95c0-0.31,0.07-0.62,0.12-0.92   c0.06-0.43,0.12-0.85,0.19-1.28c0.06-0.37,0.13-0.74,0.18-1.12c0.04-0.34,0.1-0.68,0.14-1.03c0.05-0.39,0.06-0.78,0.07-1.21   c0.18,0.08,0.2,0.22,0.23,0.33c0.05,0.22,0.15,0.42,0.25,0.62c0.09,0.2,0.14,0.41,0.15,0.63c0.02,0.34,0.1,0.67,0.19,0.99   c0.21,0.76,0.33,1.53,0.37,2.32c0.01,0.32,0.06,0.64,0.12,0.95c0.19,0.97,0.32,1.94,0.25,2.93c-0.07,0.93-0.28,1.84-0.55,2.73   c-0.28,0.92-0.54,1.85-0.67,2.81C54.53,74.18,54.37,74.91,54.3,75.64z M59.37,78.11c-0.54-0.11-1.08-0.23-1.62-0.35   c-1.07-0.23-2.1-0.58-3.13-0.94c-0.19-0.07-0.27-0.15-0.26-0.37c0.03-0.38,0.11-0.75,0.15-1.12c0.05-0.47,0.17-0.93,0.25-1.4   c0.17-0.92,0.38-1.84,0.64-2.74c0.19-0.65,0.41-1.31,0.48-1.98c0.06-0.53,0.14-1.06,0.11-1.6c-0.01-0.1-0.03-0.21,0.06-0.35   c0.1,0.25,0.16,0.48,0.19,0.7c0.11,0.78,0.37,1.5,0.64,2.23c0.5,1.34,1.02,2.68,1.53,4.02c0.44,1.13,0.89,2.26,1.34,3.39   c0.06,0.16,0.13,0.32,0.21,0.49C59.76,78.18,59.56,78.15,59.37,78.11z M62.44,77.98c-0.23,0.04-0.46,0.07-0.7,0.08   c-0.46,0.02-0.92,0.03-1.38,0.06c-0.2,0.01-0.3-0.06-0.36-0.25c-0.27-0.78-0.54-1.56-0.82-2.34c-0.3-0.86-0.65-1.69-0.94-2.55   c-0.41-1.2-0.9-2.38-1.35-3.56c-0.28-0.73-0.47-1.49-0.66-2.25c0-0.02,0.02-0.04,0.04-0.11c0.24,0.39,0.45,0.75,0.66,1.11   c0.48,0.81,1.02,1.59,1.62,2.32c0.39,0.47,0.69,0.98,0.97,1.52c0.39,0.77,0.76,1.55,1.14,2.33c0.46,0.93,1.02,1.79,1.53,2.68   c0.13,0.22,0.26,0.45,0.39,0.68C62.69,77.87,62.66,77.94,62.44,77.98z M67.14,75c-0.71,1.03-1.62,1.82-2.76,2.34   c-0.42,0.19-0.85,0.34-1.29,0.49c-0.12,0.04-0.25,0.07-0.33-0.1c-0.27-0.63-0.64-1.2-0.98-1.8c-0.63-1.13-1.18-2.31-1.75-3.47   c-0.23-0.47-0.44-0.96-0.72-1.41c-0.21-0.33-0.47-0.62-0.71-0.92c-0.53-0.68-1.04-1.38-1.47-2.13c-0.25-0.43-0.56-0.83-0.78-1.29   c-0.27-0.56-0.45-1.13-0.54-1.74c-0.1-0.69-0.12-1.39-0.21-2.08c-0.05-0.41-0.16-0.81-0.28-1.21c-0.04-0.12-0.06-0.25-0.09-0.37   c0.02-0.01,0.03-0.01,0.05-0.02c0.17,0.22,0.25,0.49,0.34,0.75c0.02,0.06,0.02,0.13,0.05,0.2c0.65,1.14,1.18,2.35,1.9,3.45   c0.65,0.99,1.27,2,2.05,2.9c0.5,0.58,1.04,1.11,1.62,1.61c0.22,0.19,0.39,0.42,0.61,0.6c0.89,0.74,1.87,1.34,2.88,1.89   c0.9,0.49,1.83,0.91,2.78,1.28c0.07,0.03,0.15,0.04,0.21,0.13C67.57,74.43,67.34,74.71,67.14,75z M72.77,73.8   c-0.87,0.07-1.73-0.06-2.59-0.16c-0.74-0.08-1.44-0.29-2.14-0.51c-0.27-0.08-0.27-0.1-0.29-0.38c-0.03-0.4-0.08-0.81-0.12-1.21   c-0.05-0.6-0.14-1.2-0.15-1.81c-0.03-1.4-0.1-2.8-0.03-4.21c0.05-0.98,0.09-1.95,0.07-2.93c-0.02-0.78-0.08-1.55-0.12-2.33   c-0.05-0.92-0.27-1.8-0.48-2.69c-0.16-0.67-0.31-1.34-0.48-2.01c-0.04-0.15-0.13-0.28-0.13-0.43c0.08-0.05,0.11,0.01,0.14,0.05   c0.58,0.69,1.18,1.36,1.73,2.07c0.33,0.43,0.71,0.83,1.06,1.25c0.38,0.46,0.75,0.92,1.12,1.39c0.25,0.32,0.49,0.65,0.74,0.97   c0.25,0.33,0.39,0.71,0.56,1.08c0.2,0.41,0.32,0.84,0.44,1.27c0.05,0.19,0.08,0.39,0.09,0.59c0.08,1.16,0.23,2.32,0.26,3.49   c0.01,0.53,0.13,1.06,0.19,1.59c0.04,0.4,0.11,0.8,0.16,1.21c0.08,0.67,0.25,1.32,0.44,1.96c0.15,0.51,0.25,1.04,0.5,1.52   c0.02,0.04,0.01,0.08,0.02,0.17C73.41,73.75,73.09,73.77,72.77,73.8z M77.35,73.05c-1.01,0.3-2.03,0.56-3.09,0.64   c-0.16,0.01-0.25-0.03-0.31-0.19c-0.32-0.84-0.54-1.71-0.74-2.58c-0.17-0.73-0.24-1.48-0.34-2.22c-0.08-0.58-0.11-1.17-0.21-1.75   c-0.02-0.14-0.02-0.29-0.02-0.44c0-0.65-0.09-1.29-0.2-1.93c-0.05-0.28-0.08-0.56-0.1-0.85c-0.03-0.39-0.13-0.76-0.28-1.12   c-0.04-0.1-0.05-0.2-0.07-0.31c0.23,0.19,0.35,0.47,0.51,0.71c0.51,0.75,1.05,1.48,1.48,2.28c0.71,1.32,1.43,2.63,2.02,4.01   c0.3,0.71,0.65,1.41,0.97,2.12c0.19,0.44,0.37,0.89,0.53,1.35C77.54,72.93,77.51,73,77.35,73.05z M81.08,71.36   c-0.99,0.67-2.09,1.12-3.21,1.51c-0.19,0.07-0.25-0.03-0.29-0.18c-0.24-0.75-0.51-1.48-0.85-2.19c-0.45-0.96-0.79-1.98-1.3-2.91   c-0.58-1.06-1.02-2.2-1.71-3.2c-0.35-0.51-0.7-1.03-1.05-1.54c-0.02-0.03-0.04-0.07-0.08-0.13c0.13-0.02,0.18,0.04,0.23,0.1   c0.91,0.82,1.88,1.58,2.82,2.37c0.36,0.31,0.68,0.67,1.03,0.99c0.76,0.68,1.4,1.46,2.09,2.2c0.63,0.68,1.25,1.38,1.81,2.14   c0.19,0.25,0.43,0.47,0.64,0.7C81.21,71.3,81.14,71.33,81.08,71.36z M84.57,68.37c-0.65,0.65-1.25,1.34-1.97,1.92   c-0.18,0.14-0.24,0.12-0.3-0.1c-0.38-1.36-0.95-2.63-1.65-3.85c-0.59-1.03-1.17-2.06-1.83-3.05c-0.46-0.69-0.99-1.33-1.43-2.04   c-0.61-0.99-1.21-2-1.83-2.99c-0.36-0.57-0.76-1.12-1.1-1.7c-0.32-0.53-0.68-1.02-1.05-1.51c-0.18-0.24-0.35-0.49-0.54-0.75   c0.12-0.04,0.17,0.04,0.22,0.09c0.7,0.6,1.39,1.22,2.08,1.84c1,0.88,1.95,1.81,2.9,2.75c0.93,0.93,1.83,1.89,2.7,2.88   c0.73,0.83,1.49,1.64,2.11,2.56c0.63,0.93,1.18,1.91,1.56,2.98c0.08,0.22,0.13,0.45,0.19,0.67C84.67,68.18,84.65,68.28,84.57,68.37   z"/><path d="M52.71,36.28c0.32-0.18,0.66-0.3,0.94-0.54c0.07-0.06,0.16-0.1,0.18-0.22c-0.2-0.03-0.34,0.19-0.58,0.1   c0.38-0.5,1.06-0.57,1.41-1.11c-0.29-0.02-0.47,0.19-0.73,0.21c0.16-0.23,0.32-0.45,0.57-0.58c0.19-0.1,0.39-0.19,0.58-0.29   c0.08-0.04,0.16-0.08,0.2-0.2c-0.15,0.04-0.27,0.1-0.41,0.03c0.1-0.17,0.18-0.33,0.4-0.37c0.14-0.03,0.28-0.08,0.42-0.14   c0.21-0.11,0.45-0.17,0.64-0.34c-0.28-0.11-0.49,0.12-0.76,0.11c0.07-0.15,0.19-0.2,0.3-0.26c0.43-0.23,0.91-0.33,1.35-0.53   c0.09-0.04,0.2-0.06,0.23-0.2c-0.29-0.03-0.56,0.08-0.83,0.09c0.17-0.23,0.39-0.36,0.64-0.42c0.42-0.11,0.84-0.2,1.23-0.38   c0.1-0.04,0.22-0.06,0.26-0.2c-0.33-0.09-0.61,0.11-0.92,0.1c0.22-0.18,0.41-0.38,0.69-0.45c0.35-0.08,0.68-0.18,1.01-0.32   c0.09-0.04,0.22-0.06,0.25-0.23c-0.21,0.03-0.4,0.06-0.6,0.09c0.12-0.21,0.58-0.58,0.83-0.67c0.3-0.1,0.57-0.25,0.83-0.42   c0.05-0.03,0.11-0.05,0.08-0.14c-0.15-0.02-0.3,0.06-0.46,0.06c0.39-0.61,1.02-0.89,1.57-1.26c-0.1-0.2-0.22,0.05-0.31-0.08   c0.35-0.45,0.8-0.8,1.27-1.1c-0.01-0.09-0.12-0.07-0.11-0.16c0.22-0.3,0.45-0.6,0.75-0.84c0.07-0.06,0.19-0.12,0.15-0.22   c-0.04-0.13,0.02-0.19,0.07-0.28c0.2-0.37,0.47-0.7,0.64-1.1c0.36-0.84,0.79-1.65,1.1-2.52c0.13-0.36,0.34-0.7,0.41-1.09   c-0.03,0-0.07,0-0.1,0c0,0.03,0,0.06-0.01,0.07c-0.39,0.38-0.57,0.88-0.79,1.36c-0.03,0.05-0.04,0.12-0.12,0.12   c-0.1-0.05-0.03-0.18-0.1-0.24c-0.06,0.02-0.08,0.06-0.09,0.1c-0.07,0.22-0.1,0.45-0.11,0.69c0,0.23-0.1,0.42-0.26,0.63   c-0.09-0.29,0.02-0.54-0.11-0.76c-0.14,0.33-0.22,0.67-0.21,1.03c0,0.39-0.17,0.71-0.44,1.04c-0.02-0.32,0.09-0.59-0.06-0.85   c-0.07,0.06-0.09,0.12-0.12,0.19c-0.16,0.36-0.19,0.75-0.22,1.14c-0.02,0.24-0.13,0.39-0.33,0.57c-0.03-0.41,0.05-0.77-0.04-1.14   c-0.09,0.05-0.08,0.13-0.11,0.19c-0.13,0.38-0.1,0.77-0.14,1.15c-0.05,0.41-0.36,0.59-0.61,0.84c0.01-0.26,0.05-0.51-0.02-0.76   c-0.15,0.3-0.27,0.6-0.31,0.93c-0.04,0.34-0.29,0.52-0.54,0.7c0.03-0.38,0.09-0.74,0.11-1.12c-0.09,0.01-0.1,0.05-0.12,0.09   c-0.2,0.46-0.37,0.93-0.46,1.43c-0.05,0.24-0.3,0.52-0.54,0.6c0.12-0.49,0.34-0.96,0.25-1.48c-0.23,0.35-0.38,0.73-0.48,1.14   c-0.21,0.88-0.23,0.91-0.93,1.49c-0.04,0.03-0.08,0.1-0.17,0.05c0.07-0.29,0.22-0.55,0.33-0.83c0.17-0.45,0.25-0.72,0.22-0.86   c-0.44,0.58-0.69,1.25-0.93,1.93c-0.03,0.07-0.04,0.16-0.1,0.21c-0.25,0.2-0.5,0.38-0.8,0.53c0.27-0.56,0.51-1.12,0.64-1.72   c-0.05-0.02-0.08-0.01-0.09,0.01c-0.21,0.36-0.46,0.71-0.62,1.11c-0.12,0.31-0.26,0.6-0.39,0.9c-0.13,0.29-0.41,0.41-0.65,0.59   c0.15-0.52,0.4-1,0.51-1.53c-0.08-0.01-0.1,0.02-0.12,0.05c-0.3,0.52-0.56,1.06-0.71,1.63c-0.1,0.36-0.4,0.5-0.69,0.68   c0.23-0.67,0.54-1.31,0.74-1.99c-0.06-0.01-0.08,0-0.1,0.02c-0.45,0.67-0.79,1.38-1.01,2.15c-0.1,0.32-0.34,0.47-0.55,0.69   c0.09-0.47,0.27-0.92,0.33-1.42c-0.05,0.03-0.08,0.04-0.09,0.05c-0.03,0.03-0.05,0.07-0.08,0.11c-0.28,0.48-0.45,1.01-0.56,1.55   c-0.06,0.26-0.12,0.51-0.41,0.7c0.12-0.6,0.31-1.13,0.34-1.69c-0.24,0.4-0.38,0.83-0.48,1.28c-0.06,0.29-0.05,0.59-0.15,0.87   c-0.06,0.16-0.11,0.33-0.31,0.45c0.05-0.5,0.1-0.96,0.03-1.42c-0.19,0.32-0.24,0.67-0.26,1.02c-0.02,0.26,0,0.52,0,0.78   c0,0.09,0.02,0.19-0.13,0.22c-0.1-0.43,0.02-0.87-0.17-1.32c-0.02,0.05-0.04,0.07-0.05,0.1c-0.15,0.57-0.16,1.14-0.03,1.72   C52.5,36.33,52.58,36.36,52.71,36.28z"/><path d="M35.42,23.83c0.12,0.22,0.11,0.49,0.28,0.68c0.18,0.19,0.3,0.42,0.44,0.64c0.04,0.06,0.11,0.12,0.07,0.18   c-0.08,0.14,0.03,0.19,0.1,0.26c0.09,0.09,0.18,0.16,0.27,0.25c0.2,0.22,0.42,0.42,0.53,0.71c-0.03,0.01-0.07,0-0.11,0.06   c0.45,0.35,0.93,0.67,1.27,1.15c-0.12,0.08-0.18-0.11-0.31,0.01c0.13,0.19,0.35,0.26,0.53,0.38c0.2,0.12,0.41,0.23,0.56,0.41   c0.14,0.17,0.34,0.29,0.47,0.51c-0.19-0.04-0.34-0.07-0.5-0.1c0,0.1,0.06,0.11,0.1,0.14c0.29,0.22,0.62,0.34,0.95,0.48   c0.3,0.12,0.5,0.38,0.72,0.59c-0.2,0.01-0.39-0.06-0.62-0.03c0.09,0.13,0.2,0.18,0.31,0.22c0.32,0.13,0.65,0.24,0.99,0.31   c0.19,0.04,0.57,0.31,0.66,0.47c-0.31,0.01-0.58-0.23-0.91-0.11c0.11,0.16,0.27,0.18,0.41,0.25c0.4,0.18,0.85,0.22,1.26,0.38   c0.19,0.07,0.34,0.2,0.46,0.36c-0.28-0.01-0.55-0.15-0.86-0.06c0.16,0.14,0.32,0.21,0.49,0.26c0.37,0.12,0.74,0.25,1.09,0.41   c0.12,0.06,0.27,0.11,0.31,0.29c-0.25-0.04-0.46-0.21-0.71-0.13c0.01,0.08,0.07,0.09,0.12,0.12c0.3,0.18,0.63,0.28,0.96,0.39   c0.19,0.06,0.29,0.19,0.36,0.36c-0.15,0.1-0.29-0.03-0.43,0.01c0.47,0.34,1.11,0.47,1.39,1.08c-0.26-0.05-0.45-0.29-0.75-0.24   c0.07,0.14,0.17,0.21,0.26,0.28c0.27,0.19,0.55,0.36,0.84,0.52c0.12,0.06,0.24,0.13,0.24,0.32c-0.19,0.04-0.32-0.13-0.5-0.11   c0,0.12,0.09,0.15,0.15,0.21c0.26,0.25,0.61,0.35,0.91,0.53c0.18,0.11,0.23,0.09,0.29-0.12c0.09-0.34,0.07-0.69,0.07-1.03   c0-0.25-0.06-0.48-0.15-0.77c-0.16,0.48-0.11,0.93-0.21,1.37c-0.16-0.35-0.08-0.71-0.11-1.07c-0.04-0.49-0.12-0.87-0.28-0.99   c-0.08,0.47,0.06,0.95,0.02,1.43c-0.11-0.16-0.26-0.3-0.29-0.5c-0.05-0.44-0.14-0.87-0.25-1.29c-0.08-0.29-0.21-0.57-0.37-0.83   c0.04,0.56,0.24,1.09,0.3,1.64c-0.23-0.18-0.23-0.2-0.3-0.44c-0.1-0.37-0.19-0.74-0.31-1.09c-0.1-0.3-0.23-0.58-0.48-0.85   c0.04,0.55,0.25,1.02,0.35,1.51c-0.23-0.21-0.48-0.38-0.56-0.69c-0.17-0.63-0.45-1.21-0.77-1.78c-0.09-0.16-0.17-0.33-0.34-0.43   c0.11,0.35,0.23,0.68,0.36,1.02c0.13,0.33,0.3,0.64,0.37,0.99c-0.13-0.06-0.22-0.15-0.33-0.22c-0.22-0.14-0.32-0.34-0.39-0.59   c-0.15-0.53-0.37-1.02-0.66-1.49c-0.03-0.04-0.04-0.12-0.14-0.08c0.09,0.25,0.17,0.5,0.25,0.76c0.08,0.25,0.24,0.48,0.28,0.78   c-0.42-0.27-0.55-0.39-0.63-0.56c-0.09-0.2-0.18-0.39-0.26-0.59c-0.19-0.45-0.41-0.9-0.68-1.31c-0.05-0.07-0.08-0.17-0.2-0.18   c0.1,0.32,0.19,0.61,0.29,0.91c0.1,0.29,0.29,0.53,0.35,0.84c-0.21-0.11-0.38-0.25-0.57-0.37c-0.18-0.11-0.28-0.27-0.35-0.47   c-0.21-0.62-0.45-1.22-0.83-1.75c-0.03-0.04-0.03-0.1-0.11-0.07c0.12,0.59,0.4,1.13,0.61,1.68c-0.09,0.05-0.13,0.01-0.17-0.03   c-0.15-0.13-0.29-0.27-0.45-0.4c-0.19-0.15-0.29-0.35-0.35-0.59c-0.07-0.28-0.14-0.57-0.23-0.85c-0.09-0.29-0.19-0.58-0.41-0.82   c-0.02,0.52,0.13,1,0.25,1.5c-0.24-0.15-0.46-0.32-0.52-0.61c-0.1-0.49-0.24-0.97-0.47-1.42c-0.02-0.04-0.02-0.11-0.1-0.09   c0,0.38,0.09,0.74,0.12,1.12c-0.24-0.11-0.42-0.29-0.5-0.54c-0.11-0.33-0.15-0.67-0.29-0.99c-0.02-0.05-0.02-0.12-0.11-0.12   c-0.09,0.25,0.1,0.5,0,0.78c-0.32-0.33-0.66-0.59-0.61-1.11c0.03-0.37-0.06-0.74-0.22-1.1c-0.1,0.35-0.02,0.72-0.08,1.13   c-0.18-0.21-0.34-0.37-0.31-0.62c0.02-0.24-0.04-0.47-0.08-0.69c-0.04-0.19-0.09-0.4-0.24-0.58c-0.07,0.29-0.06,0.55-0.03,0.83   c-0.06-0.02-0.08-0.02-0.09-0.03c-0.02-0.03-0.04-0.06-0.06-0.08c-0.25-0.34-0.32-0.74-0.34-1.15c-0.01-0.28-0.06-0.55-0.18-0.86   c-0.11,0.3-0.11,0.55-0.11,0.81c-0.16-0.16-0.27-0.33-0.26-0.55c0.01-0.22-0.04-0.43-0.09-0.64c-0.02-0.07-0.01-0.2-0.13-0.22   c-0.1,0.08,0.01,0.22-0.11,0.3c-0.08-0.04-0.1-0.13-0.13-0.21c-0.07-0.16-0.15-0.31-0.21-0.47c-0.13-0.33-0.37-0.6-0.54-0.91   c-0.05,0-0.1,0-0.16,0c0.04,0.12,0.08,0.25,0.13,0.36C34.51,21.8,34.9,22.85,35.42,23.83z"/><path d="M41.17,36.98c-0.13-0.02-0.2-0.08-0.26-0.19c-0.16-0.34-0.38-0.64-0.6-0.94c-0.12-0.16-0.24-0.33-0.29-0.52   c-0.17-0.57-0.56-0.98-0.94-1.41c-0.17-0.19-0.39-0.32-0.65-0.35c-0.24-0.03-0.44-0.14-0.64-0.28c-0.06-0.04-0.1-0.12-0.22-0.11   c-0.01,0.03-0.02,0.06-0.02,0.08c0.11,0.61,0.31,1.17,0.9,1.49c0.16,0.09,0.3,0.2,0.46,0.3c0.7,0.47,1.25,1.09,1.67,1.82   c0.08,0.14,0.09,0.25-0.02,0.4c-0.21,0.27-0.19,0.59,0.01,0.87c0.09,0.13,0.22,0.22,0.34,0.32c0.09,0.07,0.18,0.14,0.23,0.24   c0.16,0.37,0.43,0.52,0.85,0.48c0.01-0.04-0.02-0.07-0.05-0.09c-0.11-0.08-0.11-0.17-0.05-0.27c0.07-0.13,0.17-0.05,0.25-0.02   c0.14,0.06,0.28,0.13,0.42,0.19c0.33,0.13,0.63,0.05,0.83-0.21c-0.06-0.06-0.13-0.09-0.21-0.09c-0.41,0.04-0.78-0.12-1.15-0.25   c-0.12-0.04-0.18-0.1-0.17-0.22c0-0.14,0.02-0.28,0.02-0.41C41.89,37.35,41.65,37.04,41.17,36.98z"/><path d="M62.37,33.45c0.02-0.09,0.04-0.18-0.02-0.26c-0.06-0.01-0.09,0-0.11,0.03c-0.23,0.2-0.49,0.32-0.79,0.36   c-0.14,0.02-0.27,0.07-0.38,0.17c-0.45,0.4-0.85,0.84-1.08,1.41c-0.09,0.23-0.19,0.45-0.33,0.65c-0.23,0.33-0.47,0.65-0.64,1.01   c-0.04,0.09-0.1,0.15-0.21,0.16c-0.52,0.07-0.75,0.35-0.74,0.88c0,0.13,0.01,0.26,0.02,0.39c0,0.09-0.01,0.18-0.12,0.2   c-0.37,0.1-0.72,0.31-1.13,0.26c-0.11-0.01-0.23,0.02-0.33,0.11c0.3,0.25,0.61,0.31,0.96,0.15c0.17-0.08,0.33-0.18,0.51-0.21   c0.15,0.15,0.15,0.28-0.05,0.42c0.34,0.03,0.74-0.09,0.8-0.29c0.08-0.28,0.31-0.41,0.5-0.58c0.31-0.27,0.4-0.69,0.18-1.01   c-0.14-0.2-0.11-0.34,0.01-0.51c0.06-0.09,0.11-0.18,0.17-0.26c0.49-0.76,1.16-1.33,1.93-1.78C62.03,34.45,62.23,33.97,62.37,33.45   z"/><path d="M44.34,55.46c0.02,0.07,0.07,0.13,0.15,0.13c0.09,0,0.11-0.06,0.13-0.14c0.04-0.19,0.09-0.39,0.14-0.58   c0.08-0.3,0.11-0.6,0.14-0.94c-0.06,0.03-0.08,0.03-0.09,0.04c-0.3,0.4-0.4,0.88-0.48,1.35C44.32,55.37,44.33,55.42,44.34,55.46z"/><path d="M55.32,55.38c0.02,0.09,0.02,0.21,0.15,0.2c0.14-0.01,0.13-0.13,0.15-0.23c0.03-0.21-0.07-0.39-0.1-0.58   c-0.06-0.29-0.2-0.54-0.39-0.78c-0.04,0.17-0.05,0.34,0,0.51C55.19,54.79,55.26,55.08,55.32,55.38z"/><path d="M59.07,40.62c0.32-0.06,0.55-0.28,0.8-0.45c-0.01-0.03-0.03-0.07-0.04-0.1c-0.48,0.26-1.05,0.07-1.58,0.31   C58.52,40.56,58.77,40.67,59.07,40.62z"/><path d="M41.68,40.35c-0.2-0.04-0.35-0.12-0.52-0.11c-0.35,0.01-0.69-0.04-1.03-0.17c-0.09,0.12,0,0.16,0.06,0.2   c0.09,0.05,0.2,0.08,0.27,0.16c0.15,0.17,0.36,0.2,0.57,0.21C41.27,40.63,41.49,40.57,41.68,40.35z"/><path d="M58.66,50.24c0.13-0.02,0.14-0.15,0.11-0.25c-0.14-0.48-0.36-0.92-0.8-1.3c0.07,0.35,0.17,0.61,0.28,0.88   c0.07,0.17,0.17,0.32,0.23,0.49C58.53,50.15,58.53,50.27,58.66,50.24z"/><path d="M41.3,50.24c0.07,0.01,0.1-0.05,0.13-0.11c0.09-0.2,0.17-0.39,0.26-0.59c0.12-0.26,0.21-0.53,0.28-0.81   c-0.03-0.01-0.04-0.02-0.04-0.01c-0.02,0.01-0.05,0.02-0.06,0.04c-0.32,0.35-0.55,0.74-0.68,1.2c-0.01,0.04-0.02,0.09-0.01,0.13   C41.19,50.17,41.22,50.24,41.3,50.24z"/><path d="M58.8,44.57c0.26,0.52,0.94,1.13,1.26,1.1C59.79,45.15,59.4,44.79,58.8,44.57z"/><path d="M39.98,45.71c0.46-0.27,0.89-0.58,1.16-1.1C40.59,44.74,39.98,45.31,39.98,45.71z"/><path d="M58.02,51.43c0.03,0.07,0.09,0.14,0.18,0.11c0.09-0.03,0.12-0.1,0.11-0.18c-0.09-0.43-0.21-0.85-0.55-1.21   c-0.08,0.24,0,0.42,0.04,0.6C57.84,50.98,57.91,51.21,58.02,51.43z"/><path d="M41.86,39.54c-0.12,0-0.24-0.01-0.35-0.08c-0.17-0.1-0.37-0.14-0.56-0.2c-0.07-0.02-0.14-0.05-0.18,0.04   c-0.03,0.08,0.03,0.13,0.09,0.16c0.16,0.06,0.29,0.18,0.44,0.26c0.31,0.16,0.63,0.17,0.97-0.04   C42.14,39.58,42.01,39.54,41.86,39.54z"/><path d="M58.98,39.26c-0.35,0.07-0.65,0.32-1.03,0.3c-0.07,0-0.19,0.02-0.26,0.12c0.13,0.08,0.25,0.14,0.4,0.15   c0.45,0.04,0.75-0.26,1.09-0.46c0.03-0.02,0.04-0.06,0.02-0.11C59.14,39.21,59.07,39.25,58.98,39.26z"/><path d="M41.77,51.54c0.1,0.02,0.15-0.05,0.17-0.12c0.08-0.22,0.15-0.44,0.22-0.66c0.05-0.19,0.05-0.37,0.03-0.6   c-0.3,0.3-0.53,0.84-0.53,1.19C41.67,51.44,41.68,51.52,41.77,51.54z"/><path d="M59.1,48.77c0.08-0.04,0.06-0.11,0.03-0.18c-0.12-0.26-0.25-0.51-0.42-0.74c-0.12-0.16-0.23-0.31-0.43-0.37   c0.05,0.23,0.51,1.09,0.67,1.25C58.99,48.77,59.04,48.8,59.1,48.77z"/><path d="M41.06,48.65c0.13-0.2,0.26-0.41,0.37-0.62c0.1-0.18,0.2-0.37,0.28-0.59c-0.43,0.25-0.84,0.84-0.92,1.3   C40.97,48.78,40.98,48.78,41.06,48.65z"/><path d="M48.74,49.87c-0.25,0.46-0.29,0.96-0.35,1.45c-0.01,0.05,0.01,0.09,0.06,0.1c0.06,0.02,0.1-0.01,0.12-0.06   c0.02-0.05,0.05-0.09,0.06-0.14c0.05-0.23,0.12-0.47,0.15-0.71C48.8,50.3,48.82,50.08,48.74,49.87z"/><path d="M51.49,51.42c0.09-0.02,0.09-0.1,0.08-0.17c-0.05-0.27-0.04-0.55-0.13-0.82c-0.06-0.18-0.06-0.38-0.22-0.58   c-0.07,0.52-0.03,0.98,0.14,1.43C51.39,51.35,51.39,51.43,51.49,51.42z"/><path d="M48.41,57.63c-0.01-0.07-0.04-0.14-0.13-0.14c-0.09,0-0.11,0.08-0.11,0.15c-0.02,0.29-0.01,0.59,0.06,0.87   c0.02,0.09,0.04,0.26,0.19,0.23c0.15-0.03,0.03-0.18,0.08-0.28C48.44,58.2,48.45,57.91,48.41,57.63z"/><path d="M51.52,58.76c0.05,0.01,0.09,0,0.11-0.04c0.03-0.05,0.07-0.1,0.08-0.16c0.04-0.23,0.07-0.46,0.1-0.65c0-0.07,0-0.11,0-0.14   c-0.01-0.11,0.02-0.26-0.13-0.27c-0.19-0.01-0.15,0.16-0.15,0.27c0,0.24-0.02,0.48-0.07,0.72c-0.01,0.06-0.01,0.12-0.01,0.18   C51.45,58.71,51.48,58.74,51.52,58.76z"/><path d="M44.84,37.39c-0.1-0.02-0.2-0.05-0.24,0.07c-0.03,0.11,0.06,0.17,0.14,0.22c0.27,0.16,0.69,0.11,0.98-0.13   c-0.15-0.12-0.31-0.15-0.48-0.16C45.11,37.38,44.97,37.43,44.84,37.39z"/><path d="M59.8,46.51c0.04-0.37-0.35-0.88-0.73-0.97C59.02,45.81,59.4,46.32,59.8,46.51z"/><path d="M55.35,37.43c-0.03-0.05-0.08-0.07-0.13-0.06c-0.18,0.05-0.36,0-0.54,0.02c-0.14,0.01-0.29,0.02-0.4,0.14   c0.2,0.28,0.82,0.32,1.03,0.07C55.35,37.55,55.38,37.5,55.35,37.43z"/><path d="M40.19,46.5c0.38-0.19,0.71-0.65,0.68-0.97C40.45,45.69,40.1,46.21,40.19,46.5z"/><path d="M51.84,36.85c0.21,0.1,0.44,0.16,0.67,0.05c0.06-0.03,0.12-0.08,0.11-0.16c-0.01-0.07-0.05-0.13-0.11-0.13   c-0.29,0.01-0.59-0.17-0.88,0.04C51.68,36.76,51.76,36.81,51.84,36.85z"/><path d="M47.34,36.73c-0.01,0.12,0.07,0.17,0.16,0.2c0.26,0.09,0.62-0.03,0.81-0.27c-0.26-0.12-0.26-0.12-0.78-0.06   C47.44,36.61,47.36,36.62,47.34,36.73z"/><path d="M56.78,38.11c0.06-0.03,0.16-0.07,0.11-0.17c-0.05-0.1-0.15-0.05-0.2-0.01c-0.21,0.16-0.46,0.16-0.71,0.21   c-0.11,0.02-0.2,0.07-0.3,0.13c0.33,0.19,0.65,0.19,0.95-0.06C56.68,38.18,56.73,38.14,56.78,38.11z"/><path d="M43.05,37.92c-0.04,0.06-0.01,0.1,0.03,0.13c0.07,0.07,0.16,0.1,0.23,0.16c0.22,0.19,0.62,0.29,0.94,0.05   c-0.02-0.03-0.03-0.05-0.05-0.05c-0.34-0.15-0.74-0.08-1.05-0.34C43.13,37.85,43.08,37.88,43.05,37.92z"/><path d="M51.94,49.47c0.07,0.37,0.22,0.67,0.47,0.94c0.05,0.06,0.12,0.12,0.2,0.07c0.09-0.06,0.04-0.15,0-0.23   c-0.1-0.21-0.24-0.4-0.39-0.57C52.15,49.59,52.1,49.48,51.94,49.47z"/><path d="M59.59,41.58c0.22-0.05,0.48-0.05,0.63-0.29c-0.37,0.01-0.74-0.15-1.11,0.07C59.24,41.57,59.42,41.63,59.59,41.58z"/><path d="M39.7,42.06c0.34,0.03,0.67-0.01,0.97-0.21c-0.34-0.09-0.68-0.09-1.02-0.06c-0.06,0.01-0.12,0.05-0.11,0.12   C39.55,42.01,39.62,42.05,39.7,42.06z"/><path d="M50.55,51.47c0.09,0.01,0.11-0.07,0.13-0.13c0.02-0.05,0.03-0.1,0.03-0.15c-0.02-0.29-0.08-0.57-0.31-0.85   c-0.09,0.38-0.08,0.7,0.04,1.01C50.46,51.4,50.48,51.46,50.55,51.47z"/><path d="M49.53,50.37c-0.33,0.42-0.37,0.93-0.1,1.11C49.61,51.13,49.71,50.78,49.53,50.37z"/><path d="M47.3,50.31c-0.03,0.06-0.02,0.12,0.03,0.16c0.05,0.03,0.1,0.03,0.14-0.01c0.3-0.25,0.45-0.58,0.51-0.96   C47.68,49.7,47.46,49.99,47.3,50.31z"/><path d="M60.24,42.06c0.1-0.01,0.17-0.05,0.16-0.16c-0.01-0.1-0.09-0.11-0.17-0.12c-0.28-0.02-0.55,0-0.83,0.01   c-0.05,0-0.1,0-0.13,0.08C59.57,42.05,59.9,42.09,60.24,42.06z"/><path d="M39.71,41.33c0.28,0.31,0.89,0.34,1.09,0.06C40.62,41.22,39.92,41.18,39.71,41.33z"/><path d="M60.07,44.19c-0.15-0.48-0.59-0.63-0.98-0.83C59.36,43.71,59.59,44.09,60.07,44.19z"/><path d="M39.85,44.17c0.26,0.06,0.8-0.37,1.04-0.84C40.46,43.57,40.04,43.71,39.85,44.17z"/><path d="M44.05,52.84c-0.33,0.35-0.64,0.66-0.76,1.13C43.59,53.91,43.96,53.34,44.05,52.84z"/><path d="M48.27,54.75c0.01,0.05,0.02,0.09,0.07,0.1c0.04,0.01,0.09-0.01,0.11-0.04c0.23-0.27,0.3-0.6,0.31-0.96   C48.52,54,48.24,54.53,48.27,54.75z"/><path d="M51.51,54.8c0.04,0.05,0.09,0.08,0.16,0.04c0.05-0.04,0.04-0.08,0.03-0.14c-0.08-0.32-0.2-0.62-0.47-0.87   c0,0.15-0.01,0.26,0,0.37C51.25,54.43,51.36,54.63,51.51,54.8z"/><path d="M56.65,53.96c-0.07-0.36-0.39-0.8-0.77-1.05C56.19,53.67,56.42,53.98,56.65,53.96z"/><path d="M45.21,36.93c-0.03,0.07,0.02,0.12,0.07,0.15c0.3,0.18,0.62,0.27,0.97,0.23c-0.26-0.22-0.56-0.34-0.86-0.44   C45.31,36.85,45.25,36.85,45.21,36.93z"/><path d="M49.01,57.85c-0.16,0.32-0.12,0.65-0.12,0.97c0,0.08,0.01,0.18,0.11,0.18c0.1,0,0.11-0.1,0.11-0.17   c0.02-0.3,0.01-0.6-0.03-0.9C49.09,57.89,49.07,57.85,49.01,57.85z"/><path d="M54.55,36.88c-0.21,0.07-0.42,0.14-0.62,0.26c-0.07,0.04-0.16,0.07-0.19,0.19c0.35,0.02,0.65-0.08,0.93-0.26   c0.05-0.03,0.09-0.09,0.06-0.15C54.69,36.84,54.62,36.86,54.55,36.88z"/><path d="M41.92,40.62c0.48,0,0.93-0.15,1.36-0.35C42.8,40.28,42.34,40.37,41.92,40.62z"/><path d="M58.04,40.6c-0.22-0.18-1.02-0.38-1.43-0.34C57.05,40.5,57.87,40.69,58.04,40.6z"/><path d="M52.04,57.1c-0.07,0.44-0.05,0.85,0.01,1.25C52.28,58.15,52.27,57.48,52.04,57.1z"/><path d="M59.98,40.77c0.05-0.03,0.1-0.07,0.06-0.15c-0.04-0.06-0.09-0.06-0.16-0.04c-0.18,0.06-0.36,0.11-0.54,0.18   c-0.12,0.04-0.24,0.07-0.35,0.2C59.37,41.02,59.68,40.93,59.98,40.77z"/><path d="M40.12,40.61c-0.07-0.02-0.16-0.07-0.19,0.05c-0.02,0.09,0.06,0.14,0.13,0.17c0.28,0.12,0.57,0.19,0.89,0.12   C40.7,40.77,40.41,40.68,40.12,40.61z"/><path d="M44.1,53.9c-0.3,0.28-0.47,0.75-0.34,1C43.98,54.7,44.16,54.16,44.1,53.9z"/><path d="M46.11,36.97c0.33,0.28,0.64,0.29,0.99,0.06C46.77,36.9,46.47,36.85,46.11,36.97z"/><path d="M53.81,36.93c-0.33-0.06-0.64-0.04-0.97,0.11C53.3,37.27,53.65,37.23,53.81,36.93z"/><path d="M47.92,58.39c0.02-0.43,0.06-0.82-0.05-1.21C47.68,57.98,47.69,58.2,47.92,58.39z"/><path d="M50.98,35.99c0.23,0.13,0.41,0.07,0.57-0.06c0.11-0.1,0.24-0.2,0.16-0.42C51.47,35.69,51.15,35.71,50.98,35.99z"/><path d="M48.43,35.95c0.17,0.15,0.31,0.15,0.53,0.01c-0.18-0.25-0.5-0.27-0.71-0.49C48.15,35.73,48.3,35.84,48.43,35.95z"/><path d="M50.93,58.99c0.06,0,0.09-0.04,0.1-0.1c0.02-0.2,0.04-0.39,0.01-0.59c-0.02-0.14,0.02-0.3-0.15-0.44   c-0.1,0.37-0.06,0.72-0.05,1.06C50.85,58.96,50.88,58.99,50.93,58.99z"/><path d="M56.18,54.91c0.17-0.21,0.03-0.62-0.36-1.07C55.87,54.25,55.92,54.61,56.18,54.91z"/><path d="M43.42,52.38c-0.28,0.16-0.48,0.56-0.45,0.9C43.2,53.2,43.42,52.75,43.42,52.38z"/><path d="M54.11,41.96c-0.39-0.02-0.67-0.33-1.1-0.32c0.29,0.25,0.58,0.39,0.89,0.49C53.99,42.16,54.08,42.13,54.11,41.96z"/><path d="M59.89,43.19c0.03-0.05,0-0.1-0.03-0.14c-0.19-0.2-0.42-0.34-0.72-0.36c0.15,0.24,0.32,0.45,0.59,0.56   C59.79,43.27,59.85,43.25,59.89,43.19z"/><path d="M44.38,37.9c-0.19-0.28-0.47-0.39-0.81-0.44C43.71,37.79,44.12,38.01,44.38,37.9z"/><path d="M40.26,43.23c0.23-0.12,0.44-0.27,0.56-0.57c-0.31,0.06-0.51,0.21-0.7,0.36c-0.06,0.05-0.07,0.12-0.02,0.19   C40.14,43.26,40.21,43.25,40.26,43.23z"/><path d="M46.73,41.65c-0.25,0.07-0.47,0.22-0.71,0.29c-0.07,0.02-0.15,0.02-0.13,0.12c0.02,0.08,0.1,0.1,0.17,0.07   c0.3-0.1,0.59-0.22,0.85-0.45C46.83,41.62,46.78,41.64,46.73,41.65z"/><path d="M56.54,52.38c0.02,0.39,0.15,0.66,0.38,0.93C57.06,53.03,56.92,52.69,56.54,52.38z"/><path d="M55.55,37.93c0.36,0.03,0.73-0.19,0.81-0.48C56.04,37.52,55.77,37.62,55.55,37.93z"/><path d="M50.66,55.57c0.14-0.24,0.06-0.61-0.17-0.81C50.37,55.17,50.43,55.44,50.66,55.57z"/><path d="M44.99,38.81c0.01-0.06-0.03-0.1-0.09-0.1c-0.29-0.03-0.59-0.1-0.91,0.03c0.31,0.17,0.61,0.17,0.92,0.15   C44.95,38.89,44.98,38.86,44.99,38.81z"/><path d="M55.11,38.7c-0.07,0.01-0.15,0-0.15,0.1c0.01,0.09,0.09,0.09,0.16,0.09c0.3,0.02,0.58-0.02,0.9-0.17   C55.69,38.64,55.4,38.66,55.11,38.7z"/><path d="M59.59,39.58c-0.29,0.04-0.7,0.19-0.97,0.37C59.1,40.01,59.57,39.82,59.59,39.58z"/><path d="M49.31,55.58c0.21-0.17,0.26-0.49,0.13-0.8C49.19,55.04,49.13,55.4,49.31,55.58z"/><path d="M40.36,39.61c-0.02,0.06,0.02,0.1,0.06,0.13c0.27,0.17,0.55,0.25,0.87,0.19c-0.24-0.18-0.53-0.26-0.8-0.36   C40.43,39.55,40.38,39.55,40.36,39.61z"/><path d="M45.85,36.4c0.38,0.31,0.71,0.4,0.91,0.25C46.58,36.48,46.17,36.37,45.85,36.4z"/><path d="M53.34,36.53c-0.07,0.02-0.14,0.05-0.12,0.14c0.02,0.08,0.11,0.07,0.18,0.06c0.25-0.03,0.47-0.13,0.72-0.33   C53.8,36.36,53.57,36.47,53.34,36.53z"/><path d="M42.57,51.59c-0.21,0.13-0.35,0.58-0.24,0.76c0.03,0.04,0.05,0.06,0.1,0.06c0.05,0,0.09-0.03,0.08-0.08   C42.49,52.08,42.64,51.85,42.57,51.59z"/><path d="M48.41,36.35c0.31,0.3,0.72,0.27,0.97-0.08C49.05,36.32,48.76,36.41,48.41,36.35z"/><path d="M57.68,52.19c-0.04-0.2-0.08-0.42-0.26-0.57c-0.04,0.27,0,0.53,0.02,0.79C57.63,52.39,57.71,52.33,57.68,52.19z"/><path d="M54.39,56.87c-0.1-0.29-0.12-0.57-0.31-0.83C53.94,56.33,54.09,56.74,54.39,56.87z"/><path d="M51.5,36.36c-0.31,0.04-0.59-0.04-0.87-0.04C50.9,36.63,51.27,36.65,51.5,36.36z"/><path d="M45.85,56.06c-0.16,0.25-0.2,0.52-0.27,0.83C45.88,56.75,46.02,56.29,45.85,56.06z"/><path d="M56.38,39.34c-0.05,0.03-0.09,0.06-0.09,0.12c0,0.07,0.05,0.11,0.12,0.12c0.17,0.02,0.34,0,0.49-0.12   C56.74,39.3,56.53,39.26,56.38,39.34z"/><path d="M53.7,41.09c0.41,0.08,0.82,0.19,1.24,0.05C54.52,41.12,54.12,41,53.7,41.09z"/><path d="M50.2,56.09c0.11-0.28,0.08-0.53-0.04-0.83C50.01,55.54,50.03,55.96,50.2,56.09z"/><path d="M46.3,41.11c-0.26-0.09-1.11-0.04-1.26,0.07C45.45,41.27,45.85,41.18,46.3,41.11z"/><path d="M54.92,55.84c0.05-0.01,0.08-0.06,0.06-0.1c-0.08-0.18-0.11-0.4-0.33-0.53c-0.06,0.24,0.03,0.4,0.12,0.57   C54.8,55.84,54.85,55.86,54.92,55.84z"/><path d="M43.66,39.45c0-0.1-0.1-0.14-0.19-0.14c-0.15-0.01-0.29,0-0.45,0.14c0.16,0.09,0.3,0.14,0.45,0.13   C43.56,39.57,43.66,39.56,43.66,39.45z"/><path d="M49.7,34.85c-0.27,0.31-0.31,0.58-0.13,0.75C49.75,35.38,49.72,35.14,49.7,34.85z"/><path d="M47.67,54.29c0.1-0.16,0.16-0.32,0.07-0.54c-0.14,0.14-0.21,0.28-0.29,0.43c-0.03,0.06-0.05,0.14,0.02,0.18   C47.56,54.41,47.63,54.36,47.67,54.29z"/><path d="M50.46,35.59c0.09-0.26,0-0.48-0.15-0.73C50.17,35.11,50.24,35.44,50.46,35.59z"/><path d="M45.3,55.18c-0.17,0.2-0.29,0.39-0.33,0.66C45.25,55.79,45.37,55.54,45.3,55.18z"/><path d="M52.46,54.36c0.07-0.03,0.07-0.1,0.04-0.16c-0.07-0.17-0.13-0.35-0.32-0.46c-0.06,0.22,0.02,0.39,0.13,0.56   C52.34,54.36,52.39,54.4,52.46,54.36z"/><path d="M53.23,49.41c-0.08-0.1-0.19-0.17-0.36-0.2c-0.05,0.19,0.05,0.3,0.16,0.4c0.06,0.05,0.15,0.06,0.21,0   C53.31,49.55,53.28,49.48,53.23,49.41z"/><path d="M47.06,49.22c-0.16,0.04-0.27,0.1-0.36,0.22c-0.04,0.05-0.06,0.11-0.02,0.17c0.04,0.05,0.11,0.05,0.17,0.04   C47,49.62,47.09,49.45,47.06,49.22z"/><path d="M58.82,42.9c0.03-0.07-0.02-0.12-0.07-0.14c-0.14-0.07-0.28-0.13-0.46-0.02c0.09,0.16,0.22,0.22,0.36,0.25   C58.73,43,58.79,42.97,58.82,42.9z"/><path d="M41.35,42.97c0.12-0.05,0.24-0.09,0.33-0.23c-0.15-0.13-0.28-0.07-0.42-0.02c-0.07,0.03-0.14,0.09-0.1,0.18   C41.19,42.99,41.27,43.01,41.35,42.97z"/><path d="M48.83,35.46c0.14,0.09,0.27,0.21,0.5,0.1c-0.17-0.17-0.36-0.25-0.54-0.36C48.7,35.33,48.75,35.41,48.83,35.46z"/><path d="M46.11,48.94c0.12-0.01,0.2-0.08,0.19-0.2c0-0.12-0.08-0.16-0.19-0.16c-0.15,0-0.19,0.12-0.19,0.23   C45.91,48.93,46.03,48.93,46.11,48.94z"/><path d="M45.66,55.83c-0.18,0.18-0.32,0.38-0.28,0.66C45.59,56.31,45.64,56.08,45.66,55.83z"/><path d="M51.2,35.35c0.01-0.04,0.01-0.09-0.03-0.11c-0.03-0.02-0.07-0.02-0.09,0c-0.11,0.13-0.31,0.15-0.42,0.32   C50.87,35.64,51.15,35.52,51.2,35.35z"/><path d="M53.85,48.94c0.1-0.01,0.19-0.04,0.19-0.16c-0.02-0.12-0.08-0.2-0.21-0.19c-0.12,0.01-0.17,0.08-0.17,0.19   C53.67,48.89,53.74,48.95,53.85,48.94z"/><path d="M49.81,56.12c0.07-0.27,0.06-0.54,0-0.82C49.71,55.57,49.66,55.85,49.81,56.12z"/><path d="M57.14,38.28c0.24-0.02,0.47-0.07,0.59-0.31C57.48,37.97,57.28,38.09,57.14,38.28z"/><path d="M42.83,38.29c-0.12-0.21-0.31-0.26-0.49-0.34c-0.04-0.02-0.09-0.02-0.11,0.03c-0.03,0.05,0,0.09,0.03,0.11   C42.43,38.19,42.6,38.29,42.83,38.29z"/><path d="M54.24,55.82c0.1,0.23,0.11,0.48,0.31,0.67C54.62,56.23,54.47,55.91,54.24,55.82z"/><path d="M45.49,54.74c0.11,0.02,0.17-0.06,0.2-0.17c-0.01-0.1-0.07-0.17-0.18-0.19c-0.1-0.02-0.17,0.04-0.17,0.15   C45.34,54.64,45.37,54.73,45.49,54.74z"/><path d="M54.62,54.54c0-0.1-0.06-0.15-0.16-0.17c-0.1,0.02-0.18,0.08-0.17,0.19c0,0.1,0.06,0.19,0.18,0.18   C54.57,54.73,54.62,54.64,54.62,54.54z"/><path d="M44.73,40.44c0.1-0.01,0.15-0.08,0.16-0.18c-0.01-0.09-0.05-0.17-0.16-0.16c-0.1,0.01-0.15,0.08-0.15,0.18   C44.57,40.37,44.63,40.44,44.73,40.44z"/><path d="M43.34,48.51c-0.01-0.09-0.06-0.15-0.15-0.15c-0.12,0-0.17,0.09-0.16,0.19c0.01,0.09,0.08,0.13,0.17,0.13   C43.29,48.66,43.35,48.61,43.34,48.51z"/><path d="M44.69,51.48c0.09-0.01,0.17-0.05,0.16-0.16c0-0.1-0.06-0.17-0.16-0.17c-0.1,0-0.16,0.08-0.15,0.17   C44.54,51.42,44.59,51.47,44.69,51.48z"/><path d="M55.26,51.15c-0.09,0.01-0.16,0.07-0.16,0.17c0,0.1,0.07,0.16,0.17,0.16c0.1,0,0.15-0.07,0.16-0.17   C55.41,51.22,55.36,51.15,55.26,51.15z"/><path d="M54.86,38.1c-0.17-0.02-0.3-0.04-0.44,0.01c-0.05,0.02-0.1,0.05-0.09,0.11c0.01,0.08,0.07,0.09,0.14,0.08   C54.61,38.28,54.74,38.25,54.86,38.1z"/><path d="M55.23,40.1c-0.09-0.01-0.15,0.05-0.15,0.14c0,0.1,0.04,0.19,0.15,0.2c0.09,0.01,0.13-0.07,0.13-0.16   C55.37,40.18,55.33,40.11,55.23,40.1z"/><path d="M47.41,42.46c0.14-0.02,0.22-0.11,0.24-0.25c-0.13-0.08-0.23-0.01-0.33,0.05c-0.05,0.03-0.06,0.08-0.04,0.13   C47.31,42.45,47.36,42.47,47.41,42.46z"/><path d="M41.38,44.2c0.12-0.01,0.15-0.1,0.14-0.2c-0.02-0.08,0.02-0.21-0.12-0.18c-0.14,0.03-0.1,0.18-0.14,0.28   C41.24,44.15,41.31,44.21,41.38,44.2z"/><path d="M41.67,41.57c-0.1,0-0.2,0.04-0.2,0.15c-0.01,0.08,0.07,0.12,0.14,0.12c0.1,0,0.18-0.05,0.21-0.16   C41.81,41.6,41.75,41.57,41.67,41.57z"/><path d="M56.48,50.83c-0.01,0.1,0.06,0.13,0.16,0.14c0.09-0.02,0.18-0.05,0.17-0.17c0-0.1-0.08-0.12-0.16-0.12   C56.56,50.68,56.49,50.73,56.48,50.83z"/><path d="M45.6,38.23c0.02-0.07-0.04-0.11-0.1-0.13c-0.13-0.04-0.26-0.03-0.41,0c0.11,0.13,0.24,0.17,0.37,0.19   C45.52,38.31,45.58,38.3,45.6,38.23z"/><path d="M56.63,48.49c-0.01,0.1,0.02,0.18,0.13,0.19c0.09,0.01,0.14-0.05,0.16-0.14c0-0.1-0.04-0.17-0.14-0.18   C56.69,48.36,56.64,48.41,56.63,48.49z"/><path d="M58.68,44.09c-0.04-0.1,0-0.25-0.15-0.27c-0.1-0.02-0.1,0.07-0.09,0.15c0,0.09-0.02,0.22,0.12,0.24   C58.63,44.21,58.7,44.15,58.68,44.09z"/><path d="M43.33,50.96c0.09,0,0.15-0.05,0.14-0.14c-0.01-0.1-0.09-0.14-0.19-0.15c-0.07,0.01-0.12,0.05-0.12,0.13   C43.17,50.91,43.23,50.96,43.33,50.96z"/><path d="M53.33,36.21c-0.22,0.05-0.4,0.16-0.55,0.33C53.02,36.52,53.18,36.37,53.33,36.21z"/><path d="M58.47,41.72c-0.01-0.1-0.09-0.14-0.19-0.15c-0.06,0.01-0.15,0.03-0.15,0.13c0.01,0.1,0.1,0.14,0.19,0.15   C58.4,41.85,58.48,41.82,58.47,41.72z"/><path d="M52.62,42.45c0.04-0.02,0.06-0.06,0.05-0.11c-0.01-0.09-0.1-0.11-0.16-0.14c-0.06-0.03-0.13-0.03-0.19,0.02   c-0.03,0.08,0.02,0.14,0.07,0.18C52.45,42.46,52.53,42.49,52.62,42.45z"/><path d="M49.98,54.5c0.16-0.02,0.13-0.14,0.11-0.28c-0.12,0-0.24-0.07-0.25,0.1C49.83,54.41,49.87,54.51,49.98,54.5z"/><path d="M46.64,36.22c0.16,0.14,0.3,0.32,0.55,0.31C47.04,36.37,46.86,36.27,46.64,36.22z"/><path d="M54.49,47.77c-0.01-0.08-0.07-0.11-0.15-0.11c-0.09,0.02-0.15,0.07-0.14,0.17c0,0.08,0.07,0.12,0.14,0.11   C54.43,47.93,54.5,47.87,54.49,47.77z"/><path d="M45.76,47.82c0-0.1-0.06-0.15-0.16-0.16c-0.07,0-0.12,0.03-0.12,0.1c-0.01,0.1,0.05,0.16,0.15,0.18   C45.71,47.96,45.75,47.91,45.76,47.82z"/><path d="M58.14,46.75c0,0.09,0.04,0.15,0.13,0.15c0.09,0,0.13-0.06,0.15-0.15c-0.01-0.09-0.06-0.14-0.15-0.14   C58.19,46.62,58.14,46.67,58.14,46.75z"/><path d="M51.43,48.85c-0.01-0.1-0.08-0.14-0.17-0.15c-0.08,0.01-0.12,0.05-0.11,0.12c0.02,0.09,0.07,0.16,0.17,0.16   C51.4,48.96,51.44,48.92,51.43,48.85z"/><path d="M42.15,43.04c-0.07,0.01-0.11,0.06-0.11,0.12c0,0.09,0.06,0.13,0.15,0.15c0.08-0.02,0.13-0.06,0.12-0.14   C42.3,43.08,42.24,43.03,42.15,43.04z"/><path d="M58.18,44.96c-0.08,0-0.13,0.04-0.14,0.12c0,0.08,0.06,0.12,0.13,0.13c0.08-0.01,0.13-0.05,0.13-0.13   C58.31,45,58.26,44.95,58.18,44.96z"/><path d="M41.54,46.78c0.01,0.09,0.07,0.14,0.16,0.13c0.08-0.01,0.11-0.07,0.11-0.14c0-0.09-0.05-0.14-0.14-0.14   C41.58,46.63,41.53,46.69,41.54,46.78z"/><path d="M57.91,43.18c0.01-0.08-0.03-0.13-0.11-0.15c-0.09,0.01-0.15,0.06-0.15,0.14c-0.01,0.08,0.05,0.13,0.13,0.13   C57.84,43.3,57.9,43.26,57.91,43.18z"/><path d="M48.77,48.8c0-0.07-0.03-0.12-0.11-0.1c-0.08,0.02-0.14,0.07-0.14,0.16c0.01,0.07,0.05,0.11,0.12,0.1   C48.73,48.96,48.78,48.89,48.77,48.8z"/><path d="M57.71,46.54c0.08,0,0.12-0.05,0.13-0.12c-0.01-0.07-0.04-0.12-0.11-0.12c-0.09,0-0.15,0.05-0.15,0.14   C57.59,46.51,57.64,46.54,57.71,46.54z"/><path d="M42.36,46.45c0.01-0.09-0.04-0.13-0.12-0.14c-0.08-0.01-0.14,0.02-0.14,0.11c0,0.08,0.05,0.13,0.13,0.13   C42.3,46.55,42.35,46.52,42.36,46.45z"/><path d="M44.43,52.74c0,0.09,0.05,0.14,0.14,0.14c0.07,0,0.1-0.05,0.1-0.12c-0.01-0.08-0.05-0.12-0.12-0.13   C44.47,52.63,44.44,52.68,44.43,52.74z"/><path d="M55.27,52.8c0.01,0.07,0.07,0.1,0.14,0.09c0.08-0.01,0.12-0.07,0.11-0.15c-0.01-0.07-0.05-0.12-0.12-0.1   C55.31,52.65,55.25,52.7,55.27,52.8z"/><path d="M41.9,45.07c-0.01-0.08-0.06-0.12-0.14-0.12c-0.07,0.01-0.11,0.05-0.11,0.12c0,0.08,0.05,0.13,0.13,0.13   C41.84,45.2,41.89,45.15,41.9,45.07z"/><path d="M42.14,44.43c0,0.07,0.05,0.11,0.11,0.11c0.07,0,0.11-0.03,0.12-0.1c0-0.08-0.03-0.13-0.12-0.14   C42.18,44.31,42.14,44.35,42.14,44.43z"/><path d="M46.98,53.53c-0.01-0.08-0.07-0.12-0.14-0.11c-0.07,0-0.11,0.05-0.11,0.12c0.01,0.08,0.07,0.11,0.14,0.12   C46.94,53.64,46.99,53.6,46.98,53.53z"/><path d="M49.27,49.84c-0.05,0.02-0.12,0.04-0.12,0.12c0,0.07,0.06,0.1,0.13,0.1c0.07,0,0.12-0.04,0.12-0.11   C49.41,49.88,49.37,49.84,49.27,49.84z"/><path d="M53.77,37.76c0.11,0.06,0.18,0.02,0.24-0.09c-0.08-0.08-0.16-0.15-0.26-0.06C53.69,37.66,53.71,37.73,53.77,37.76z"/><path d="M51.72,36.32c0.21-0.1,0.22-0.12,0.1-0.32C51.7,36.1,51.67,36.19,51.72,36.32z"/><path d="M48.22,36.33c0.04-0.15,0.06-0.26-0.16-0.34C48.06,36.15,48.03,36.27,48.22,36.33z"/><path d="M53.24,53.52c-0.01-0.07-0.06-0.1-0.13-0.1c-0.08,0.01-0.12,0.06-0.11,0.14c0.01,0.06,0.05,0.09,0.11,0.09   C53.18,53.64,53.24,53.61,53.24,53.52z"/><path d="M57.81,44.43c0-0.08-0.04-0.14-0.12-0.13c-0.07,0.01-0.12,0.07-0.11,0.14c0.01,0.07,0.06,0.09,0.14,0.1   C57.77,44.53,57.82,44.5,57.81,44.43z"/><path d="M46.78,55.2c-0.06,0.02-0.11,0.05-0.11,0.12c0,0.08,0.05,0.13,0.13,0.12c0.07,0,0.1-0.06,0.1-0.12   C46.89,55.25,46.84,55.21,46.78,55.2z"/><path d="M46.19,37.6c-0.11-0.07-0.19-0.01-0.26,0.1c0.1,0.05,0.17,0.15,0.28,0.04C46.24,37.71,46.24,37.63,46.19,37.6z"/><path d="M50.68,50.06c0.07,0,0.11-0.05,0.11-0.12c-0.01-0.07-0.06-0.1-0.13-0.1c-0.07,0-0.12,0.04-0.12,0.11   C50.54,50.03,50.6,50.07,50.68,50.06z"/><path d="M57.38,39.55c-0.01-0.06-0.04-0.1-0.1-0.09c-0.08,0-0.13,0.05-0.12,0.13c0.01,0.06,0.05,0.09,0.11,0.08   C57.34,39.66,57.37,39.62,57.38,39.55z"/><path d="M53.32,55.85c0,0.08,0.05,0.13,0.13,0.13c0.07,0,0.1-0.06,0.1-0.13c-0.01-0.07-0.05-0.12-0.11-0.12   C53.37,55.74,53.32,55.78,53.32,55.85z"/><path d="M51.74,56.68c-0.06,0-0.09,0.04-0.1,0.09c-0.01,0.07,0.02,0.12,0.09,0.12c0.07,0.01,0.1-0.04,0.12-0.11   C51.84,56.72,51.8,56.68,51.74,56.68z"/><path d="M51.66,42.51c0.08,0,0.09-0.06,0.09-0.12c-0.01-0.06-0.03-0.12-0.11-0.11c-0.06,0.01-0.11,0.05-0.1,0.13   C51.55,42.47,51.59,42.51,51.66,42.51z"/><path d="M54.2,40.39c0.01,0.06,0.05,0.11,0.12,0.11c0.07,0,0.1-0.06,0.11-0.12c-0.01-0.07-0.05-0.11-0.12-0.11   C54.24,40.28,54.19,40.32,54.2,40.39z"/><path d="M45.65,40.51c0.07,0,0.1-0.05,0.11-0.12c-0.01-0.06-0.05-0.11-0.12-0.11c-0.07,0-0.12,0.04-0.12,0.1   C45.52,40.45,45.57,40.51,45.65,40.51z"/><path d="M46.42,55.83c-0.01,0.07,0.02,0.12,0.09,0.14c0.07,0.01,0.11-0.03,0.12-0.1c0-0.07-0.03-0.12-0.1-0.12   C46.47,55.73,46.43,55.77,46.42,55.83z"/><path d="M48.31,42.51c0.06,0,0.09-0.04,0.09-0.12c0-0.05-0.02-0.11-0.09-0.11c-0.07,0-0.1,0.05-0.11,0.11   C48.2,42.46,48.24,42.51,48.31,42.51z"/><path d="M42.59,39.54c-0.01,0.08,0.04,0.13,0.12,0.13c0.06,0,0.09-0.04,0.1-0.09c-0.01-0.07-0.05-0.11-0.11-0.12   C42.64,39.45,42.6,39.48,42.59,39.54z"/><path d="M53.17,55.43c0.07,0,0.11-0.04,0.11-0.12c0-0.06-0.05-0.09-0.1-0.1c-0.07,0.01-0.11,0.05-0.11,0.12   C53.07,55.4,53.12,55.43,53.17,55.43z"/><path d="M43.24,46.99c-0.01-0.07-0.05-0.11-0.12-0.1c-0.06,0-0.1,0.03-0.1,0.09c0,0.07,0.05,0.11,0.12,0.11   C43.2,47.08,43.23,47.04,43.24,46.99z"/><path d="M52.58,56.45c0.07-0.01,0.12-0.04,0.11-0.11c0-0.06-0.05-0.08-0.12-0.08c-0.04,0.02-0.1,0.05-0.09,0.13   C52.49,56.42,52.53,56.45,52.58,56.45z"/><path d="M45.31,39.16c0.07,0,0.1-0.05,0.11-0.13c-0.01-0.04-0.03-0.09-0.09-0.09c-0.07,0-0.1,0.05-0.11,0.12   C45.22,39.11,45.25,39.16,45.31,39.16z"/><path d="M49.14,57.36c-0.01-0.05-0.05-0.09-0.11-0.08c-0.06,0.01-0.11,0.05-0.1,0.13c0.01,0.06,0.06,0.08,0.12,0.08   C49.1,57.47,49.16,57.44,49.14,57.36z"/><path d="M51.92,55.69c0.01-0.06-0.04-0.09-0.1-0.11c-0.07,0-0.12,0.04-0.12,0.1c-0.01,0.06,0.03,0.1,0.09,0.1   C51.86,55.79,51.91,55.76,51.92,55.69z"/><path d="M57.75,48.25c0.01-0.07-0.03-0.11-0.1-0.12c-0.06,0-0.09,0.04-0.1,0.1c0,0.06,0.02,0.1,0.09,0.1   C57.69,48.33,57.74,48.31,57.75,48.25z"/><path d="M42.3,48.31c0.06,0,0.1-0.02,0.11-0.1c-0.01-0.04-0.03-0.08-0.1-0.08c-0.06,0-0.1,0.03-0.11,0.09   C42.2,48.28,42.24,48.31,42.3,48.31z"/><path d="M47.28,56.36c0.01,0.06,0.04,0.09,0.1,0.09c0.06,0,0.09-0.05,0.08-0.11c0-0.06-0.04-0.09-0.1-0.09   C47.3,56.26,47.27,56.3,47.28,56.36z"/><path d="M50.94,57.48c0.06-0.01,0.09-0.04,0.09-0.11c-0.03-0.04-0.05-0.1-0.13-0.08c-0.05,0.01-0.08,0.06-0.07,0.11   C50.84,57.45,50.88,57.48,50.94,57.48z"/><path d="M56.91,46.99c0-0.06-0.03-0.1-0.09-0.11c-0.06-0.01-0.09,0.03-0.1,0.09c-0.01,0.06,0.02,0.1,0.1,0.11   C56.87,47.07,56.91,47.06,56.91,46.99z"/><path d="M54.62,39.15c0.04,0.02,0.09,0,0.1-0.05c0.03-0.1-0.03-0.14-0.14-0.17C54.55,39.03,54.52,39.1,54.62,39.15z"/><path d="M48.22,56.89c0.06-0.01,0.09-0.04,0.1-0.1c-0.01-0.05-0.03-0.08-0.08-0.08c-0.07,0-0.11,0.04-0.1,0.11   C48.13,56.86,48.17,56.89,48.22,56.89z"/><path d="M56.04,52.03c0.01,0.05,0.04,0.07,0.09,0.07c0.06,0,0.09-0.04,0.09-0.1c-0.01-0.05-0.04-0.07-0.09-0.07   C56.07,51.94,56.03,51.97,56.04,52.03z"/><path d="M48.05,55.67c-0.01,0.06,0.03,0.1,0.08,0.11c0.06,0.01,0.1-0.02,0.1-0.08c0-0.06-0.03-0.09-0.09-0.1   C48.1,55.6,48.06,55.62,48.05,55.67z"/><path d="M53.77,39.58c0.05-0.01,0.08-0.02,0.07-0.08c0-0.04-0.03-0.06-0.07-0.07c-0.05-0.01-0.08,0.02-0.09,0.07   C53.69,39.55,53.72,39.58,53.77,39.58z"/><path d="M54.47,39.76c-0.04,0-0.07,0.02-0.07,0.06c-0.01,0.05,0.02,0.09,0.07,0.09c0.05,0.01,0.08-0.03,0.09-0.07   C54.55,39.79,54.52,39.76,54.47,39.76z"/><path d="M52.79,48.49c0.01-0.06-0.03-0.1-0.09-0.1c-0.05-0.01-0.07,0.03-0.08,0.08c0,0.05,0.02,0.08,0.07,0.09   C52.74,48.56,52.78,48.53,52.79,48.49z"/><path d="M47.27,48.55c0.05,0,0.07-0.03,0.08-0.08c0-0.05-0.03-0.08-0.07-0.09c-0.05-0.01-0.08,0.02-0.09,0.07   C47.18,48.51,47.21,48.55,47.27,48.55z"/><path d="M53.34,38.09c0,0.05,0.03,0.08,0.08,0.08c0.05,0.01,0.08-0.01,0.08-0.07c0-0.05-0.03-0.08-0.08-0.09   C53.38,38.02,53.34,38.04,53.34,38.09z"/><path d="M43.75,52.03c0.01,0.04,0.04,0.07,0.09,0.07c0.05,0,0.07-0.04,0.07-0.08c-0.01-0.05-0.03-0.08-0.08-0.08   C43.77,51.94,43.74,51.97,43.75,52.03z"/><path d="M45.5,39.92c0.05,0,0.08-0.03,0.08-0.08c0-0.05-0.03-0.07-0.08-0.07c-0.05,0.01-0.08,0.03-0.08,0.08   C45.42,39.89,45.45,39.92,45.5,39.92z"/><path d="M58.53,41.2c0,0.04,0.03,0.06,0.07,0.06c0.05,0,0.08-0.03,0.08-0.08c0.01-0.04-0.01-0.07-0.05-0.07   C58.57,41.11,58.53,41.14,58.53,41.2z"/><path d="M42.65,41.51c0-0.05-0.02-0.08-0.07-0.08c-0.05,0-0.08,0.03-0.08,0.08c0,0.05,0.03,0.08,0.07,0.09   C42.63,41.59,42.65,41.55,42.65,41.51z"/><path d="M46.55,38.17c0.05-0.01,0.06-0.05,0.07-0.09c-0.01-0.04-0.03-0.06-0.07-0.06c-0.06,0.01-0.1,0.04-0.09,0.1   C46.46,38.18,46.51,38.18,46.55,38.17z"/><path d="M46.19,39.58c0.05,0.01,0.08,0,0.1-0.06c0-0.05-0.03-0.08-0.07-0.09c-0.05-0.01-0.08,0.02-0.08,0.07   C46.13,39.54,46.15,39.57,46.19,39.58z"/><path d="M45.58,53.28c0,0.02,0.03,0.05,0.05,0.05c0.08-0.01,0.1-0.07,0.08-0.14C45.62,53.15,45.58,53.19,45.58,53.28z"/><path d="M41.27,41.18c0,0.05,0.03,0.08,0.07,0.09c0.05,0.01,0.08-0.02,0.08-0.06c0.01-0.05-0.02-0.08-0.06-0.09   C41.31,41.1,41.28,41.13,41.27,41.18z"/><path d="M57.37,41.59c0.05-0.01,0.07-0.04,0.07-0.09c0-0.04-0.02-0.07-0.06-0.07c-0.05,0.01-0.08,0.03-0.07,0.09   C57.31,41.55,57.34,41.58,57.37,41.59z"/><path d="M43,49.83c-0.01,0.04,0.02,0.07,0.05,0.07c0.04,0.01,0.09,0,0.11-0.05c0.02-0.05-0.02-0.08-0.06-0.09   C43.05,49.76,43.01,49.79,43,49.83z"/><path d="M56.81,49.83c0,0.05,0.04,0.07,0.08,0.08c0.04,0,0.06-0.02,0.06-0.06c0-0.05-0.04-0.07-0.08-0.08   C56.83,49.78,56.81,49.79,56.81,49.83z"/><path d="M54.25,53.24c0,0.04,0.02,0.07,0.05,0.08c0.04,0.01,0.07,0,0.07-0.04c0.01-0.05-0.02-0.08-0.06-0.09   C54.27,53.18,54.25,53.2,54.25,53.24z"/><path d="M47.13,37.64c0.04,0,0.06-0.03,0.07-0.07c0-0.04-0.01-0.07-0.05-0.07c-0.04,0-0.07,0.02-0.08,0.05   C47.06,37.6,47.08,37.64,47.13,37.64z"/><path d="M55.14,53.54c-0.01,0.04,0.02,0.06,0.06,0.06c0.04,0,0.07-0.02,0.07-0.06c0.01-0.04-0.01-0.06-0.05-0.06   C55.17,53.48,55.14,53.5,55.14,53.54z"/><path d="M44.74,53.47c-0.04,0-0.06,0.02-0.05,0.07c0.01,0.04,0.04,0.06,0.08,0.05c0.04,0,0.06-0.03,0.05-0.07   C44.81,53.49,44.78,53.47,44.74,53.47z"/><path d="M52.86,37.61c0.02-0.06,0-0.1-0.07-0.1c-0.04,0.05-0.03,0.1,0.03,0.12C52.83,37.63,52.86,37.62,52.86,37.61z"/></g><text x="0" y="115" fill="#000000" font-size="5px" font-weight="bold" font-family="'Helvetica Neue', Helvetica, Arial-Unicode, Arial, Sans-serif">Created by Imogen Oh</text><text x="0" y="120" fill="#000000" font-size="5px" font-weight="bold" font-family="'Helvetica Neue', Helvetica, Arial-Unicode, Arial, Sans-serif">from the Noun Project</text></svg>