<svg xmlns="http://www.w3.org/2000/svg" version="1.1" viewBox="-5.0 -10.0 110.0 135.0">
 <path d="m12.414 71.234v25.988h21.203v-24.094c0-9.0352 7.3477-16.383 16.383-16.383s16.383 7.3477 16.383 16.383v24.094h21.203v-25.926c-2.0312-2.8711-9.4531-13.5-37.586-53.598-27.934 39.766-35.477 50.555-37.586 53.535z"/>
 <path d="m50 60.602c-6.9062 0-12.527 5.6211-12.527 12.527v24.094h25.055v-24.094c0-6.9062-5.6211-12.527-12.527-12.527z"/>
 <path d="m14.344 47.102c2.0625-2.8633 3.9883-5.5391 5.7812-8.0273v-13.168h-5.7812z"/>
 <path d="m94.445 65.785c-0.29687-0.26562 1.6797 2.3789-42.016-58.227-1.418-1.1562-3.4492-1.1562-4.8672 0-43.727 60.699-41.727 58.016-42.02 58.281-0.85938 0.77344-1.0859 2.0273-0.54688 3.0508 0.73828 1.4023 2.5586 1.7734 3.7852 0.8125l39.641-56.469c0.61328-0.87109 1.5977-0.82422 1.5781-0.82031 0.62891 0 1.2188 0.30469 1.5781 0.82031l39.59 56.457c1.3398 1.0625 3.3672 0.52344 3.9727-1.1328 0.35938-0.98438 0.085937-2.0742-0.69531-2.7734z"/>
 <path d="m16.668 17.633 1.9258-1.9258c1.8125-1.8125 1.8125-4.7656 0-6.582-0.3125-0.3125-0.3125-0.81641 0-1.1289l1.9258-1.9258c0.75391-0.75391 0.75391-1.9727 0-2.7266-0.75391-0.75391-1.9727-0.75391-2.7266 0l-1.9219 1.9258c-1.8203 1.8203-1.8203 4.7617 0 6.582 0.3125 0.3125 0.3125 0.81641 0 1.1289l-1.9297 1.9258c-0.75391 0.75391-0.75391 1.9727 0 2.7266 0.75391 0.75391 1.9727 0.75391 2.7266 0z"/>
<text x="0.0" y="117.5" font-size="5.0" font-weight="bold" font-family="Arbeit Regular, Helvetica, Arial-Unicode, Arial, Sans-serif" fill="#000000">Created by Icon Market</text><text x="0.0" y="122.5" font-size="5.0" font-weight="bold" font-family="Arbeit Regular, Helvetica, Arial-Unicode, Arial, Sans-serif" fill="#000000">from Noun Project</text></svg>